<svg width="763" height="630" viewBox="0 0 763 630" fill="none" xmlns="http://www.w3.org/2000/svg">
<g clip-path="url(#clip0_17_293)">
<path d="M537.03 216.436H589.42C610.579 216.436 627.761 233.607 627.761 254.751V312.037C627.761 327.912 614.857 340.807 598.972 340.807H535.665C517.808 340.807 503.304 326.313 503.304 308.468V250.138C503.304 231.536 518.415 216.436 537.03 216.436Z" fill="#FBEAD9"/>
<path d="M568.683 236.536C570.586 236.991 571.833 238.842 571.833 240.795V242.798C577.645 243.489 582.564 245.357 587.079 248.202C588.612 249.061 589.959 250.492 590.027 252.764C590.094 255.037 588.628 257.057 586.556 257.916C584.889 258.606 583.238 258.454 581.57 257.444C578.133 255.374 574.781 253.909 571.429 253.118V271.989C586.388 275.726 592.789 281.719 592.789 292.24C592.789 302.762 584.333 310.236 571.833 311.414V317.155C571.833 319.108 570.586 320.959 568.683 321.414C565.87 322.087 563.275 320.033 563.275 317.306V311.212C555.897 310.421 549.108 307.778 543.111 303.536C541.443 302.459 540.449 300.876 540.449 298.822C540.449 295.775 542.808 293.419 545.857 293.419C547.036 293.419 548.215 293.806 549.108 294.496C553.741 297.846 558.255 300.102 563.663 301.078V281.702C549.293 277.965 542.605 272.561 542.605 261.451C542.605 250.929 550.961 243.657 563.275 242.664V240.593C563.275 237.883 565.87 235.812 568.683 236.486V236.536ZM563.663 269.935V252.529C557.362 253.118 554.212 256.468 554.212 260.794C554.212 265.121 556.082 267.477 563.663 269.935ZM571.429 283.604V301.499C577.729 300.809 581.166 297.661 581.166 292.947C581.166 288.621 578.993 285.961 571.429 283.604Z" fill="#FFF3E3"/>
<path d="M169.234 46.0245H217.548C238.201 46.0245 254.979 62.7913 254.979 83.4299V142.316C254.979 157.82 242.378 170.395 226.88 170.395H160.777C144.083 170.395 130.522 156.843 130.522 140.161V84.7261C130.522 63.3636 147.873 46.0245 169.251 46.0245H169.234Z" fill="#FBEAD9"/>
<path d="M220.361 132.956H162.31L148.075 81.4435L229.71 81.3593L232.658 69.4744H241.907V72.8412H235.303L220.378 132.956H220.361ZM164.887 129.589H217.733L228.885 84.7261L152.523 84.7934L164.904 129.589H164.887Z" fill="#FFF3E3"/>
<path d="M170.48 143.14L167.381 141.844L172.569 129.505H212.073L216.352 141.945L213.168 143.039L209.681 132.872H174.81L170.48 143.14Z" fill="#FFF3E3"/>
<path d="M228.093 93.1432H153.971V96.51H228.093V93.1432Z" fill="#FFF3E3"/>
<path d="M224.122 105.632L157.06 105.925L157.074 109.291L224.137 108.999L224.122 105.632Z" fill="#FFF3E3"/>
<path d="M221.355 118.681H160.592V122.047H221.355V118.681Z" fill="#FFF3E3"/>
<path d="M193.458 83.3289H190.089V131.256H193.458V83.3289Z" fill="#FFF3E3"/>
<path d="M180.357 83.1966L176.999 83.4655L180.842 131.407L184.2 131.138L180.357 83.1966Z" fill="#FFF3E3"/>
<path d="M165.851 83.033L162.538 83.6419L171.358 131.573L174.672 130.964L165.851 83.033Z" fill="#FFF3E3"/>
<path d="M202.962 83.1816L199.11 131.122L202.469 131.392L206.32 83.451L202.962 83.1816Z" fill="#FFF3E3"/>
<path d="M217.468 83.0304L208.656 130.963L211.97 131.571L220.782 83.6388L217.468 83.0304Z" fill="#FFF3E3"/>
<path d="M170.901 149.487C165.393 150.952 160.474 146.036 161.939 140.531C162.579 138.107 164.534 136.154 166.959 135.515C172.468 134.05 177.387 138.966 175.921 144.47C175.281 146.894 173.327 148.847 170.901 149.487ZM169.907 138.73C167.01 138.023 164.466 140.582 165.157 143.477C165.494 144.841 166.606 145.952 167.97 146.272C170.851 146.962 173.411 144.42 172.704 141.541C172.367 140.178 171.255 139.067 169.907 138.73Z" fill="#FFF3E3"/>
<path d="M216.571 149.487C211.062 150.952 206.143 146.036 207.609 140.531C208.249 138.107 210.203 136.154 212.629 135.515C218.137 134.05 223.056 138.966 221.591 144.47C220.95 146.894 218.996 148.847 216.571 149.487ZM215.577 138.73C212.679 138.023 210.135 140.582 210.826 143.477C211.163 144.841 212.275 145.952 213.639 146.272C216.52 146.962 219.081 144.42 218.373 141.541C218.036 140.178 216.924 139.067 215.577 138.73Z" fill="#FFF3E3"/>
<path d="M178.179 630C276.584 630 356.358 617.315 356.358 601.668C356.358 586.021 276.584 573.336 178.179 573.336C79.7734 573.336 0 586.021 0 601.668C0 617.315 79.7734 630 178.179 630Z" fill="#FBEAD9"/>
<path d="M584.821 610.725C683.227 610.725 763 598.04 763 582.393C763 566.746 683.227 554.061 584.821 554.061C486.416 554.061 406.642 566.746 406.642 582.393C406.642 598.04 486.416 610.725 584.821 610.725Z" fill="#FBEAD9"/>
<path d="M383.901 573.336C482.929 573.336 563.208 564.247 563.208 553.034C563.208 541.822 482.929 532.732 383.901 532.732C284.872 532.732 204.593 541.822 204.593 553.034C204.593 564.247 284.872 573.336 383.901 573.336Z" fill="#FBEAD9"/>
<path d="M4.93585 529.382L99.677 528.962L194.418 528.827L383.901 528.541L573.366 528.81L668.107 528.962L762.848 529.382L668.107 529.786L573.366 529.938L383.901 530.224L194.418 529.938L99.677 529.786L4.93585 529.382Z" fill="#1A2E35"/>
<path d="M538.563 26.4969V523.474C538.563 538.086 526.888 549.971 512.519 549.971H255.266C240.913 549.971 229.239 538.086 229.239 523.474V26.4969C229.239 11.8512 240.913 0 255.266 0H512.519C526.888 0 538.563 11.8512 538.563 26.4969Z" fill="#1B1B1B"/>
<path d="M522.289 51.4451V507.111C522.289 521.033 511.845 532.312 498.975 532.312H268.826C255.922 532.312 245.495 521.033 245.495 507.111V51.4451C245.495 23.0627 255.939 16.8004 268.826 16.8004H314.917C317.595 16.8004 319.785 19.8306 319.785 23.6014V25.2175C319.785 34.0723 324.62 34.0891 330.583 34.0891H437.201C443.181 34.0891 447.999 34.0554 447.999 25.2175V23.6014C447.999 19.8306 450.155 16.8004 452.868 16.8004H498.992C511.862 16.8004 522.306 25.4532 522.306 51.4451H522.289Z" fill="white"/>
<path d="M398.439 23.0627H369.363C368.369 23.0627 367.56 22.2547 367.56 21.2615C367.56 20.2683 368.369 19.4602 369.363 19.4602H398.439C399.432 19.4602 400.241 20.2683 400.241 21.2615C400.241 22.2547 399.432 23.0627 398.439 23.0627Z" fill="white"/>
<path d="M490.585 102.032H277.199V352.422H490.585V102.032Z" fill="#ECECEC"/>
<path d="M489.086 382.875C486.458 387.69 480.158 391.932 480.158 391.932C480.158 391.932 473.858 387.69 471.246 382.875C468.282 377.438 469.916 371.866 474.178 371.866C478.928 371.866 480.158 377.791 480.158 377.791C480.158 377.791 481.404 371.866 486.138 371.866C490.4 371.866 492.051 377.438 489.086 382.875Z" fill="#ED5B50"/>
<path d="M301.609 56.0576H277.199V60.0641H301.609V56.0576Z" fill="#DCDCDC"/>
<path d="M301.609 64.0875H277.199V68.094H301.609V64.0875Z" fill="#DCDCDC"/>
<path d="M301.609 72.1005H277.199V76.107H301.609V72.1005Z" fill="#DCDCDC"/>
<path d="M419.575 63.2178L416.89 65.2511L425.1 76.0792L427.785 74.046L419.575 63.2178Z" fill="#DCDCDC"/>
<path d="M422.528 58.6669C424.988 61.8654 424.381 66.4611 421.181 68.9189C417.98 71.3767 413.381 70.7706 410.921 67.5722C408.462 64.3737 409.068 59.778 412.269 57.3202C415.47 54.8624 420.069 55.4684 422.528 58.6669Z" fill="#DCDCDC"/>
<path d="M420.187 60.4513C421.652 62.3704 421.298 65.1144 419.378 66.5789C417.458 68.0435 414.712 67.69 413.246 65.7709C411.781 63.8518 412.134 61.1079 414.055 59.6433C415.975 58.1787 418.721 58.5322 420.187 60.4513Z" fill="white"/>
<path d="M459.488 67.0671C456.86 71.8817 450.56 76.1239 450.56 76.1239C450.56 76.1239 444.259 71.8817 441.648 67.0671C438.683 61.6297 440.317 56.0576 444.579 56.0576C449.33 56.0576 450.56 61.9832 450.56 61.9832C450.56 61.9832 451.806 56.0576 456.54 56.0576C460.802 56.0576 462.453 61.6297 459.488 67.0671Z" fill="#ED5B50"/>
<path d="M475.121 60.8722H488.901L490.585 76.1239H473.436L475.121 60.8722Z" fill="#DCDCDC"/>
<path d="M477.715 62.6902C477.698 62.5387 477.244 58.8521 478.996 56.8656C479.72 56.0408 480.68 55.6367 481.876 55.6367C483.072 55.6367 484.032 56.0576 484.791 56.8656C486.627 58.8352 486.374 62.5051 486.374 62.6566L484.689 62.5387C484.757 61.6802 484.656 59.2056 483.561 58.0104C482.702 57.1013 481.051 57.0845 480.259 57.9935C479.231 59.1551 479.282 61.6465 479.383 62.4882L477.715 62.6902Z" fill="#DCDCDC"/>
<path d="M411.342 375.839H277.199V379.626H411.342V375.839Z" fill="#DCDCDC"/>
<path d="M392.559 382.926H277.199V386.713H392.559V382.926Z" fill="#DCDCDC"/>
<path d="M263.722 232.294L258.331 227.244L263.722 222.177L264.598 223.103L260.168 227.244L264.598 231.368L263.722 232.294Z" fill="#C8C8C8"/>
<path d="M262.644 236.25C257.674 236.25 253.615 232.21 253.615 227.227C253.615 222.244 257.658 218.204 262.644 218.204C267.63 218.204 271.673 222.244 271.673 227.227C271.673 232.21 267.63 236.25 262.644 236.25ZM262.644 219.904C258.601 219.904 255.299 223.187 255.299 227.244C255.299 231.301 258.584 234.583 262.644 234.583C266.704 234.583 269.989 231.301 269.989 227.244C269.989 223.187 266.704 219.904 262.644 219.904Z" fill="#C8C8C8"/>
<path d="M504.062 232.294L503.203 231.368L507.617 227.244L503.203 223.103L504.062 222.177L509.47 227.244L504.062 232.294Z" fill="#C8C8C8"/>
<path d="M505.14 236.25C500.171 236.25 496.111 232.21 496.111 227.227C496.111 222.244 500.154 218.204 505.14 218.204C510.127 218.204 514.17 222.244 514.17 227.227C514.17 232.21 510.127 236.25 505.14 236.25ZM505.14 219.904C501.097 219.904 497.796 223.187 497.796 227.244C497.796 231.301 501.08 234.583 505.14 234.583C509.2 234.583 512.485 231.301 512.485 227.244C512.485 223.187 509.183 219.904 505.14 219.904Z" fill="#C8C8C8"/>
<path d="M285.976 402.47C286.464 402.47 286.852 402.857 286.852 403.345V403.783C288.048 403.918 289.058 404.305 289.985 404.894C290.305 405.079 290.591 405.382 290.591 405.871C290.591 406.493 290.086 406.982 289.463 406.982C289.26 406.982 289.058 406.914 288.856 406.796C288.149 406.376 287.458 406.073 286.767 405.904V409.776C289.833 410.55 291.147 411.779 291.147 413.934C291.147 416.089 289.412 417.638 286.852 417.873V419.085C286.852 419.574 286.464 419.961 285.976 419.961C285.487 419.961 285.083 419.574 285.083 419.085V417.84C283.567 417.671 282.168 417.133 280.939 416.274C280.602 416.055 280.4 415.735 280.4 415.298C280.4 414.675 280.888 414.187 281.511 414.187C281.747 414.187 282 414.271 282.185 414.405C283.129 415.096 284.072 415.55 285.167 415.752V411.779C282.219 411.005 280.838 409.894 280.838 407.621C280.838 405.467 282.556 403.968 285.083 403.766V403.345C285.083 402.857 285.487 402.47 285.976 402.47ZM285.167 409.355V405.786C283.87 405.904 283.23 406.594 283.23 407.487C283.23 408.379 283.617 408.867 285.167 409.372V409.355ZM286.767 412.167V415.836C288.064 415.702 288.772 415.045 288.772 414.086C288.772 413.193 288.334 412.655 286.767 412.167Z" fill="#1A2E35"/>
<path d="M302.4 416.779C302.4 417.402 301.912 417.89 301.288 417.89H294.095C293.792 417.89 293.472 417.772 293.27 417.52C292.849 417.048 292.882 416.375 293.337 415.937L299.317 410.534C299.907 410.012 300.16 409.322 300.16 408.598C300.16 407.958 299.941 407.352 299.486 406.847C298.964 406.258 298.256 406.005 297.549 406.005C296.925 406.005 296.302 406.224 295.797 406.679L295.173 407.251C294.702 407.672 294.028 407.638 293.59 407.167C293.186 406.695 293.202 406.022 293.674 405.584L294.297 405.029C295.207 404.187 296.403 403.783 297.549 403.783C298.863 403.783 300.193 404.322 301.137 405.382C301.979 406.291 302.383 407.487 302.383 408.631C302.383 409.944 301.844 411.274 300.783 412.217L296.959 415.668H301.255C301.878 415.668 302.367 416.173 302.367 416.796L302.4 416.779Z" fill="#1A2E35"/>
<path d="M305.197 410.82C305.214 408.968 305.685 407.285 306.578 405.988C307.42 404.692 308.734 403.749 310.335 403.749C311.935 403.749 313.232 404.692 314.074 405.988C314.95 407.285 315.422 408.951 315.422 410.82C315.422 412.688 314.934 414.355 314.074 415.651C313.232 416.914 311.884 417.89 310.335 417.89C308.785 417.89 307.42 416.914 306.578 415.651C305.685 414.355 305.23 412.655 305.197 410.82ZM313.182 410.82C313.182 409.372 312.777 408.093 312.205 407.234C311.615 406.392 310.958 405.988 310.318 406.005C309.695 405.988 309.004 406.392 308.397 407.234C307.825 408.109 307.42 409.372 307.42 410.82C307.42 412.268 307.825 413.547 308.397 414.389C309.004 415.264 309.695 415.634 310.318 415.634C310.941 415.634 311.615 415.247 312.205 414.389C312.777 413.547 313.182 412.251 313.182 410.82Z" fill="#1A2E35"/>
<path d="M320.981 415.011C321.807 415.011 322.497 415.702 322.497 416.527C322.497 417.351 321.807 418.025 320.981 418.025C320.156 418.025 319.482 417.351 319.482 416.527C319.482 415.702 320.156 415.011 320.981 415.011Z" fill="#1A2E35"/>
<path d="M323.39 410.82C323.407 408.968 323.879 407.285 324.772 405.988C325.614 404.692 326.928 403.749 328.528 403.749C330.129 403.749 331.426 404.692 332.268 405.988C333.144 407.285 333.616 408.951 333.616 410.82C333.616 412.688 333.127 414.355 332.268 415.651C331.426 416.914 330.095 417.89 328.528 417.89C326.962 417.89 325.614 416.914 324.772 415.651C323.879 414.355 323.424 412.655 323.39 410.82ZM331.375 410.82C331.375 409.372 330.971 408.093 330.398 407.234C329.809 406.392 329.152 405.988 328.511 406.005C327.888 405.988 327.197 406.392 326.591 407.234C326.018 408.109 325.614 409.372 325.614 410.82C325.614 412.268 326.018 413.547 326.591 414.389C327.197 415.264 327.888 415.634 328.511 415.634C329.135 415.634 329.809 415.247 330.398 414.389C330.971 413.547 331.375 412.251 331.375 410.82Z" fill="#1A2E35"/>
<path d="M337.743 410.82C337.76 408.968 338.231 407.285 339.124 405.988C339.967 404.692 341.281 403.749 342.881 403.749C344.481 403.749 345.778 404.692 346.621 405.988C347.497 407.285 347.968 408.951 347.968 410.82C347.968 412.688 347.48 414.355 346.621 415.651C345.778 416.914 344.431 417.89 342.881 417.89C341.331 417.89 339.967 416.914 339.124 415.651C338.231 414.355 337.777 412.655 337.743 410.82ZM345.728 410.82C345.728 409.372 345.324 408.093 344.751 407.234C344.161 406.392 343.504 405.988 342.864 406.005C342.241 405.988 341.55 406.392 340.944 407.234C340.371 408.109 339.967 409.372 339.967 410.82C339.967 412.268 340.371 413.547 340.944 414.389C341.55 415.264 342.241 415.634 342.864 415.634C343.487 415.634 344.161 415.247 344.751 414.389C345.324 413.547 345.728 412.251 345.728 410.82Z" fill="#1A2E35"/>
<path d="M467.372 434.438H295.544V472.13H467.372V434.438Z" fill="#1A2E35"/>
<path d="M322.531 457.753H317.629L316.635 460.38C316.45 460.817 316.028 461.087 315.59 461.087C315.456 461.087 315.321 461.07 315.203 461.019C314.613 460.8 314.327 460.144 314.529 459.571L318.993 447.687C319.179 447.249 319.617 446.963 320.071 446.98C320.543 446.963 320.964 447.249 321.15 447.687L325.614 459.571C325.816 460.161 325.53 460.8 324.94 461.019C324.839 461.053 324.704 461.087 324.552 461.087C324.115 461.087 323.677 460.817 323.525 460.38L322.531 457.753ZM321.706 455.531L320.071 451.188L318.437 455.531H321.706Z" fill="white"/>
<path d="M328.376 459.975V448.057C328.376 447.434 328.865 446.946 329.488 446.946H331.88C335.772 446.946 338.939 450.111 338.939 453.999C338.939 457.888 335.789 461.087 331.88 461.087H329.488C328.865 461.087 328.376 460.581 328.376 459.975ZM330.617 458.848H331.864C334.525 458.831 336.665 456.693 336.665 453.999C336.665 451.306 334.525 449.202 331.864 449.202H330.617V458.848Z" fill="white"/>
<path d="M342.291 459.975V448.057C342.291 447.434 342.78 446.946 343.403 446.946H345.795C349.687 446.946 352.854 450.111 352.854 453.999C352.854 457.888 349.703 461.087 345.795 461.087H343.403C342.78 461.087 342.291 460.581 342.291 459.975ZM344.532 458.848H345.778C348.44 458.831 350.579 456.693 350.579 453.999C350.579 451.306 348.44 449.202 345.778 449.202H344.532V458.848Z" fill="white"/>
<path d="M371.536 449.185H368.318V459.975C368.318 460.598 367.83 461.087 367.206 461.087C366.583 461.087 366.094 460.598 366.094 459.975V449.185H362.894C362.27 449.185 361.782 448.663 361.782 448.057C361.782 447.451 362.27 446.946 362.894 446.946H371.519C372.125 446.946 372.631 447.434 372.631 448.057C372.631 448.68 372.125 449.185 371.519 449.185H371.536Z" fill="white"/>
<path d="M386.04 448.697C387.287 450.027 388.078 451.811 388.078 453.797C388.078 455.784 387.287 457.585 386.04 458.898C384.844 460.211 383.075 461.053 381.205 461.053C379.335 461.053 377.482 460.211 376.252 458.898C375.006 457.585 374.248 455.784 374.248 453.797C374.248 451.811 374.989 450.027 376.252 448.697C377.482 447.367 379.268 446.542 381.205 446.542C383.142 446.542 384.844 447.367 386.04 448.697ZM385.77 453.797C385.77 452.417 385.231 451.154 384.389 450.262C383.547 449.353 382.401 448.831 381.205 448.831C379.908 448.831 378.779 449.353 377.937 450.262C377.095 451.154 376.556 452.417 376.556 453.797C376.556 455.178 377.078 456.44 377.937 457.316C378.779 458.225 379.925 458.763 381.205 458.763C382.418 458.763 383.547 458.225 384.389 457.316C385.214 456.44 385.77 455.178 385.77 453.797Z" fill="white"/>
<path d="M397.512 453.814C397.529 449.808 400.881 446.559 404.924 446.542C406.71 446.542 408.31 447.131 409.59 448.107C410.079 448.511 410.163 449.218 409.793 449.723C409.388 450.229 408.647 450.313 408.175 449.942C407.283 449.218 406.171 448.831 404.924 448.831C403.526 448.831 402.246 449.387 401.285 450.279C400.376 451.205 399.803 452.417 399.803 453.797C399.803 455.178 400.376 456.423 401.285 457.316C402.229 458.208 403.526 458.763 404.924 458.763C406.171 458.763 407.266 458.376 408.175 457.652C408.647 457.316 409.388 457.383 409.793 457.871C410.163 458.376 410.079 459.1 409.59 459.487C408.31 460.481 406.71 461.07 404.924 461.07C400.881 461.07 397.529 457.821 397.512 453.797V453.814Z" fill="white"/>
<path d="M420.624 457.753H415.722L414.728 460.38C414.543 460.817 414.122 461.087 413.684 461.087C413.549 461.087 413.414 461.07 413.297 461.019C412.707 460.8 412.421 460.144 412.623 459.571L417.087 447.687C417.272 447.249 417.71 446.963 418.165 446.98C418.637 446.963 419.058 447.249 419.243 447.687L423.707 459.571C423.909 460.161 423.623 460.8 423.033 461.019C422.932 461.053 422.798 461.087 422.646 461.087C422.208 461.087 421.77 460.817 421.618 460.38L420.624 457.753ZM419.799 455.531L418.165 451.188L416.531 455.531H419.799Z" fill="white"/>
<path d="M435.819 459.403C436.022 459.992 435.702 460.615 435.112 460.817C435.028 460.834 434.876 460.885 434.674 460.885H434.657C434.455 460.885 434.152 460.851 433.865 460.666C433.596 460.497 433.377 460.245 433.225 459.959C432.939 459.369 432.804 458.646 432.804 457.535C432.787 457.147 432.703 456.895 432.568 456.659C432.45 456.44 432.198 456.238 431.962 456.07C431.541 455.784 431.018 455.632 430.833 455.582H428.441V459.959C428.441 460.565 427.936 461.07 427.312 461.07C426.689 461.07 426.2 460.565 426.2 459.959V448.04C426.2 447.417 426.689 446.929 427.312 446.929H430.934C433.343 446.929 435.264 448.865 435.264 451.272C435.264 452.602 434.657 453.781 433.68 454.589C433.95 454.791 434.185 455.026 434.388 455.329C434.792 455.918 435.061 456.659 435.061 457.501C435.045 458.107 435.095 458.494 435.146 458.696C435.466 458.797 435.735 459.033 435.853 459.386L435.819 459.403ZM432.989 451.289C432.989 450.111 432.063 449.185 430.9 449.185H428.407V453.343H430.9C432.046 453.343 432.989 452.417 432.989 451.289Z" fill="white"/>
<path d="M447.342 449.185H444.124V459.975C444.124 460.598 443.636 461.087 443.013 461.087C442.389 461.087 441.901 460.598 441.901 459.975V449.185H438.717C438.094 449.185 437.605 448.663 437.605 448.057C437.605 447.451 438.094 446.946 438.717 446.946H447.342C447.948 446.946 448.454 447.434 448.454 448.057C448.454 448.68 447.948 449.185 447.342 449.185Z" fill="white"/>
<path d="M627.896 465.329H476.704V572.596H627.896V465.329Z" fill="#F74A46"/>
<path d="M476.705 572.596H528.186V465.329H476.705V572.596Z" fill="#E83A3A"/>
<path d="M480.259 565.205C484.066 557.58 487.857 549.92 491.596 542.244L502.765 519.164L513.782 495.984C517.438 488.24 521.06 480.479 524.648 472.685C520.841 480.311 517.05 487.971 513.311 495.647L502.142 518.727L491.125 541.907C487.469 549.651 483.847 557.411 480.259 565.189V565.205Z" fill="#CE2424"/>
<path d="M480.259 472.719C483.847 480.513 487.469 488.274 491.125 496.001L502.142 519.181L513.311 542.261C517.05 549.937 520.824 557.597 524.648 565.223C521.06 557.428 517.455 549.668 513.782 541.924L502.765 518.744L491.596 495.664C487.857 487.988 484.083 480.328 480.259 472.702V472.719Z" fill="#CE2424"/>
<path d="M644.489 489.267H544.796L528.186 465.329H627.879L644.489 489.267Z" fill="#FE5245"/>
<path d="M511.592 489.267H460.111L476.721 465.329H528.185L511.592 489.267Z" fill="#FE5245"/>
<path d="M571.092 587.107H729.291L706.213 426.072H594.154L571.092 587.107Z" fill="#FFC800"/>
<path opacity="0.1" d="M594.154 426.072L611.741 587.124H571.092L594.154 426.072Z" fill="#1A2E35"/>
<path d="M673.835 437.35C673.801 437.216 670.954 423.715 667.888 410.096C665.328 398.716 654.041 393.497 644.607 395.029C641.272 395.568 630.49 398.413 631.889 412.318C633.489 428.31 634.736 436.037 634.752 436.121L628.098 437.199C628.048 436.879 626.818 429.219 625.184 412.991C623.887 400.046 631.08 390.4 643.529 388.38C656.046 386.36 671.038 393.38 674.458 408.631C677.524 422.301 680.388 435.835 680.422 435.97L673.835 437.367V437.35Z" fill="#1A2E35"/>
<path d="M609.601 585.878C606.013 584.144 602.509 582.258 599.022 580.373L593.817 577.461C592.082 576.484 590.347 575.525 588.645 574.498L589.319 574.464C586.59 576.4 583.928 578.42 581.149 580.289C578.403 582.191 575.64 584.077 572.81 585.861C575.354 583.689 577.982 581.602 580.61 579.548C583.221 577.461 585.933 575.508 588.595 573.471L588.898 573.235L589.252 573.437C590.987 574.397 592.688 575.441 594.406 576.434L599.528 579.481C602.914 581.568 606.3 583.656 609.601 585.878Z" fill="white"/>
<path d="M588.932 573.976L589.151 558.539L589.504 543.119L590.397 512.262L591.593 481.422L592.301 466.019L593.126 450.599L592.924 466.036L592.57 481.456L591.661 512.313L590.465 543.136L589.774 558.556L588.932 573.976Z" fill="white"/>
<path d="M670.415 436.66C670.415 440.364 673.414 443.377 677.137 443.377C680.859 443.377 683.858 440.381 683.858 436.66C683.858 432.94 680.859 429.943 677.137 429.943C673.414 429.943 670.415 432.94 670.415 436.66Z" fill="#1A2E35"/>
<path d="M625.218 436.66C625.218 440.364 628.216 443.377 631.939 443.377C635.662 443.377 638.661 440.381 638.661 436.66C638.661 432.94 635.662 429.943 631.939 429.943C628.216 429.943 625.218 432.94 625.218 436.66Z" fill="#1A2E35"/>
<path d="M288.233 423.748H189.129V454.437H288.233V423.748Z" fill="#1B1B1B"/>
<path d="M214.498 454.42L211.382 474.251L189.971 601.82H182.626L193.879 474.251L195.597 454.42H214.498Z" fill="#2B454E"/>
<path d="M195.597 454.42H214.499L211.382 474.251H193.879L195.597 454.42Z" fill="#1A2E35"/>
<path d="M294.752 601.82H287.407L265.996 474.251L262.88 454.42H281.781L283.499 474.251L294.752 601.82Z" fill="#1B1B1B"/>
<path d="M283.499 474.251H265.996L262.88 454.42H281.781L283.499 474.251Z" fill="#1A2E35"/>
<path d="M125.771 607.442C129.157 608.604 228.902 608.621 232.591 606.281C233.029 606.011 233.012 593.891 233.299 584.666C233.753 570.559 214.852 507.768 214.852 507.768L152.961 510.781L170.211 574.077C170.211 574.077 155.959 580.39 144.201 585.911C144.201 585.911 144.167 585.911 144.167 585.945C136.923 589.346 130.623 592.426 129.174 593.571C125.401 596.567 122.368 606.314 125.754 607.442H125.771Z" fill="#C36358"/>
<path d="M125.771 607.442C129.157 608.604 228.902 608.621 232.591 606.281C233.029 606.011 233.231 597.022 233.299 584.666C208.586 589.767 142.769 597.645 140.916 592.46C140.191 590.389 141.792 588.066 144.167 585.945C136.923 589.346 130.623 592.426 129.174 593.571C125.401 596.568 122.368 606.314 125.754 607.442H125.771Z" fill="#1A2E35"/>
<path d="M273.526 409.54C261.313 421.678 244.299 429.337 229.828 436.795C217.396 443.192 206.834 449.437 202.858 458.225C199.354 465.968 225.853 541.739 225.853 541.739L157.896 557.984C157.896 557.984 127.22 474.284 134.902 438.243C136.165 432.334 142.078 424.674 150.535 416.308C180.706 386.545 243.238 347.86 243.238 347.86H281.663C281.663 347.86 297.582 385.653 273.543 409.557L273.526 409.54Z" fill="#FFC800"/>
<path d="M277.317 356.21C277.165 354.476 276.98 352.742 276.811 350.991C276.795 350.823 276.525 350.823 276.542 350.991C278.142 364.981 279.439 380.316 272.853 393.296C266.502 405.786 253.783 413.311 242.48 420.769C235.623 425.297 228.75 429.826 221.894 434.354C218.457 436.627 215.038 438.882 211.601 441.155C208.821 442.99 205.991 444.791 203.414 446.912C201.089 448.814 198.916 451.02 197.451 453.663C195.8 456.625 195.244 459.959 195.496 463.292C197.181 485.782 217.16 537.867 217.682 539.786C217.817 540.274 218.575 540.038 218.424 539.567C213.572 524.568 202.824 498.66 196.996 468.561C196.254 464.706 195.699 460.615 196.895 456.777C197.855 453.679 199.893 451.07 202.252 448.882C204.593 446.71 207.238 444.909 209.9 443.158C213.387 440.852 216.874 438.546 220.361 436.239C227.167 431.745 233.972 427.25 240.761 422.755C251.913 415.399 264.48 408.244 271.724 396.595C279.271 384.474 278.547 369.829 277.317 356.176V356.21Z" fill="#375A64"/>
<path d="M273.526 409.54C261.313 421.678 244.299 429.337 229.828 436.795C204.239 430.095 171.912 421.695 150.518 416.308C180.689 386.545 243.221 347.86 243.221 347.86H281.646C281.646 347.86 297.566 385.653 273.526 409.557V409.54Z" fill="#1A2E35"/>
<path d="M4.17779 590.036C7.68173 590.726 106.533 577.377 109.886 574.565C110.29 574.245 109.279 565.29 107.679 553.051L125.199 478.443L60.1061 486.422L39.6215 550.509C39.6215 550.509 30.4742 559.179 19.5581 566.232C19.5581 566.232 19.5244 566.249 19.5244 566.266C12.8029 570.609 6.97421 574.515 5.69392 575.845C2.35844 579.313 0.657006 589.379 4.17779 590.053V590.036Z" fill="#C36358"/>
<path d="M4.17779 590.036C7.68173 590.726 106.533 577.377 109.886 574.565C110.29 574.245 109.279 565.29 107.679 553.051C83.8756 561.435 19.7097 578.067 17.1828 573.168C16.1889 571.215 17.4523 568.69 19.5244 566.266C12.8029 570.609 6.97421 574.515 5.69392 575.845C2.35844 579.313 0.657006 589.379 4.17779 590.053V590.036Z" fill="#1A2E35"/>
<path d="M42.2664 528.339L112.059 540.897L133.841 460.783C135.744 434.303 140.511 421.459 156.094 416.644C182.626 408.429 247.466 438.764 276.811 418.412C300.648 401.881 281.629 347.86 281.629 347.86H212.696C212.696 347.86 204.374 357.994 202.841 363.937C202.841 363.937 117.466 357.355 98.3631 381.562C72.7742 414.001 42.2495 528.356 42.2495 528.356L42.2664 528.339Z" fill="#FFC800"/>
<path d="M168.038 415.432C164.365 415.129 159.648 415.315 155.791 416.375C151.967 417.436 148.429 419.186 145.346 421.695C142.398 424.119 139.972 427.132 138.322 430.566C136.384 434.59 135.677 439.135 135.037 443.512C134.649 446.104 134.413 448.697 134.279 451.306C134.127 454.1 134.026 457.535 134.026 459.74C134.026 459.942 134.279 459.959 134.279 459.773C134.312 456.996 134.548 455.077 134.868 452.787C135.155 450.599 135.542 448.41 135.929 446.239C136.671 441.963 137.462 437.536 138.962 433.428C141.59 426.274 147.368 420.398 154.426 417.537C156.566 416.678 158.806 416.072 161.08 415.735C163.405 415.416 165.696 415.483 168.038 415.517C168.088 415.517 168.105 415.432 168.038 415.432Z" fill="#1A2E35"/>
<path d="M266.839 373.97C264.43 373.398 262.105 372.623 259.949 371.495C257.843 370.401 255.586 369.122 254.07 367.388C252.638 365.755 252.082 363.701 251.593 361.715C251.324 360.604 251.155 359.442 250.97 358.314C250.768 357.069 250.465 355.84 250.38 354.577C250.38 354.426 250.094 354.426 250.111 354.577C250.7 359.274 249.37 364.526 252.89 368.533C254.524 370.384 256.917 371.647 259.258 372.623C261.65 373.616 264.143 374.34 266.771 374.458C267.075 374.458 267.125 374.037 266.822 373.97H266.839Z" fill="#1A2E35"/>
<path d="M279.743 363.078C279.119 360.536 278.395 358.028 277.553 355.553C277.502 355.385 277.249 355.469 277.3 355.638C280.703 365.923 282.135 376.781 281.68 387.606C281.478 392.673 281.057 397.891 279.608 402.773C278.176 407.554 275.43 411.527 271.067 414.052C266.839 416.493 261.886 417.604 257.119 418.395C251.661 419.287 246.135 419.607 240.61 419.557C229.374 419.456 218.188 417.941 207.036 416.628C196.238 415.365 185.423 413.85 174.591 412.89C165.713 412.099 156.262 411.998 148.058 415.937C140.225 419.691 135.155 426.846 131.836 434.64C128.079 443.428 125.957 452.922 123.43 462.113C120.414 473.072 104.832 532.834 104.579 535.392C104.562 535.645 104.933 535.628 104.967 535.392C105.523 529.77 118.999 480.345 122.032 469.318C123.548 463.797 125.064 458.292 126.597 452.77C127.81 448.36 129.006 443.949 130.522 439.64C133.403 431.408 137.648 423.159 145.144 418.244C153.146 413.008 163.102 412.621 172.367 413.278C177.572 413.648 182.761 414.338 187.95 414.961C193.643 415.634 199.337 416.308 205.031 416.998C215.93 418.294 226.847 419.809 237.813 420.163C243.305 420.331 248.797 420.18 254.255 419.506C259.123 418.9 264.11 417.991 268.658 416.072C272.718 414.355 276.222 411.678 278.412 407.79C280.703 403.699 281.495 398.952 282 394.356C283.162 383.852 282.253 373.347 279.76 363.112L279.743 363.078Z" fill="#1A2E35"/>
<path d="M190.358 217.143C179.644 225.914 175.298 241.637 175.298 241.637C175.298 241.637 164.365 256.855 166.134 265.828C167.903 274.8 175.248 277.595 175.248 277.595L174.793 272.662C174.793 272.662 177.336 279.177 187.596 282.712C197.855 286.231 212.056 284.345 219.62 281.382C227.2 278.419 231.142 273.066 231.142 273.066L227.756 279.834C227.756 279.834 237.982 280.456 245.074 270.221C252.166 259.969 236.297 242.714 235.151 239.23C234.006 235.728 234.494 211.117 208.35 212.851C208.35 212.851 197.754 211.117 190.375 217.16L190.358 217.143Z" fill="#1A2E35"/>
<path d="M171.575 276.601C168.796 274.952 166.673 271.77 165.46 268.824C164.18 265.71 163.843 262.292 164.769 259.043C165.864 255.155 168.29 251.872 170.649 248.657C173.091 245.34 175.77 242.193 178.145 238.843C178.28 238.657 177.993 238.472 177.842 238.607C175.248 240.98 172.94 243.741 170.649 246.401C168.459 248.926 166.302 251.569 164.769 254.549C163.371 257.259 162.411 260.357 162.714 263.437C162.967 265.979 163.877 268.386 165.275 270.507C166.942 273.049 169.2 274.8 171.424 276.803C171.558 276.921 171.744 276.702 171.575 276.601Z" fill="#1A2E35"/>
<path d="M248.308 259.279C246.101 249.987 238.554 243.489 234.377 235.173C232.119 230.661 230.519 225.762 227.402 221.739C227.318 221.638 227.133 221.773 227.217 221.891C229.744 225.493 231.007 229.634 232.692 233.641C234.41 237.715 236.836 241.351 239.312 244.987C243.827 251.603 249.235 259.414 247.23 267.848C246.303 271.753 243.558 275.894 239.38 276.736C239.211 276.77 239.295 277.039 239.447 276.989C242.85 275.945 245.545 273.756 247.196 270.575C249.016 267.073 249.201 263.084 248.291 259.279H248.308Z" fill="#1A2E35"/>
<path d="M248.443 261.737C248.999 258.37 248.645 254.852 247.129 251.754C245.63 248.674 243.052 246.317 240.441 244.196C237.426 241.738 234.242 239.381 232.523 235.796C232.456 235.644 232.237 235.779 232.304 235.93C235 241.839 240.93 245.037 244.636 250.138C248.881 255.98 248.14 263.808 244.265 269.649C241.873 273.235 238.504 276.063 234.764 278.167C234.697 278.201 234.764 278.302 234.815 278.268C241.283 274.868 247.23 269.245 248.443 261.737Z" fill="#1A2E35"/>
<path d="M230.115 281.382C224.37 304.748 209.175 334.561 196.878 334.359C185.641 334.174 160.272 322.02 149.777 315.505C139.214 308.94 162.091 282.864 168.391 286.601C176.764 291.567 191.268 302.576 193.626 301.819C196.558 300.876 199.489 296.213 216.234 274.901C223.09 266.181 232.557 271.433 230.115 281.382Z" fill="#C36358"/>
<path d="M156.936 276.921C151.899 275.44 146.239 273.336 140.764 273.74C135.272 274.144 131.111 281.618 131.229 283.705C131.347 285.776 134.11 298.604 139.602 298.317C145.093 298.031 141.236 288.267 141.387 287.106C141.539 285.961 141.657 284.497 142.701 284.547C143.746 284.598 162.327 292.223 162.327 292.223L156.936 276.938V276.921Z" fill="#C36358"/>
<path d="M156.633 277.696C156.33 277.696 141.303 272.713 135.811 273.1C130.32 273.504 126.159 280.978 126.277 283.066C126.395 285.136 129.157 297.964 134.649 297.678C140.141 297.375 136.283 287.628 136.435 286.466C136.586 285.322 136.704 283.857 137.749 283.907C138.793 283.958 157.374 291.584 157.374 291.584L156.633 277.712V277.696Z" fill="#C36358"/>
<path d="M136.468 296.87C137.092 295.961 137.142 294.648 137.21 293.587C137.277 292.409 137.125 291.23 136.822 290.102C136.569 289.109 136.081 288.15 135.997 287.123C135.912 286.18 136.199 285.035 136.603 284.177C136.991 283.386 137.799 283.604 138.507 283.806C139.551 284.109 140.562 284.564 141.573 285.002C142.651 285.473 143.712 285.961 144.79 286.433C145.885 286.921 147.048 287.375 148.075 288.015C148.159 288.065 148.109 288.2 148.008 288.166C147.031 287.88 146.104 287.443 145.161 287.072C144.1 286.635 143.021 286.214 141.943 285.81C140.933 285.423 139.955 284.985 138.945 284.615C138.591 284.48 137.867 284.143 137.479 284.261C137.058 284.379 136.906 285.423 136.839 285.759C136.603 286.82 136.839 287.712 137.193 288.722C137.53 289.698 137.782 290.675 137.917 291.702C138.035 292.644 138.069 293.654 137.85 294.58C137.631 295.473 137.075 296.213 136.671 297.004C136.62 297.122 136.435 297.004 136.502 296.903L136.468 296.87Z" fill="#1A2E35"/>
<path d="M174.81 291.163C174.81 291.163 158.857 278.116 155.538 275.541C148.884 270.356 121.543 260.878 117.786 260.676C114.03 260.474 113.103 268.201 131.684 275.154C141.488 278.824 143.476 284.21 143.459 287.257C143.443 290.304 140.848 296.112 135.727 296.247C130.606 296.382 126.9 289.109 122.149 288.537C117.416 287.964 120.97 296.398 124.558 301.179C128.147 305.977 134.379 309.748 138.877 311.162C143.392 312.576 157.374 317.744 157.374 317.744L174.793 291.163H174.81Z" fill="#C36358"/>
<path d="M129.208 293.015C131.212 294.395 133.503 296.213 136.03 296.18C138.658 296.146 140.259 294.345 141.37 292.156C142.482 289.934 143.055 287.459 142.331 285.018C141.674 282.83 140.242 280.945 138.524 279.48C136.384 277.662 133.908 276.366 131.347 275.255C131.229 275.204 131.33 275.036 131.448 275.086C133.857 276.012 141.337 278.605 143.139 284.985C143.881 287.594 143.207 289.985 142.095 292.257C141.067 294.345 139.534 296.398 137.058 296.735C134.059 297.139 131.314 294.833 129.056 293.116C128.955 293.032 129.09 292.964 129.208 293.032V293.015Z" fill="#1A2E35"/>
<path d="M231.361 286.231C228.8 299.883 224.774 309.142 222.669 313.35C221.809 315.067 221.27 315.943 221.27 315.943L199.27 298.604L196.237 296.213C196.237 296.213 196.642 295.59 197.989 293.89C199.91 291.483 203.751 286.938 211.062 279.026C215.391 274.329 219.097 271.282 222.13 269.683C230.687 265.154 234.023 272.073 231.361 286.231Z" fill="#ECECEC"/>
<path d="M225.044 315.236L219.906 323.282L195.328 303.536L189.819 299.109C190.443 298.519 196.423 292.644 196.423 292.644L197.989 293.89L201.089 296.331L222.669 313.35L225.044 315.236Z" fill="#ECECEC"/>
<path d="M231.361 286.231C228.801 299.883 224.774 309.142 222.669 313.35L225.044 315.236L219.906 323.282L195.328 303.536C196.625 301.92 197.939 300.27 199.27 298.604L201.089 296.331C209.209 286.113 217.295 275.911 222.13 269.683C230.687 265.154 234.023 272.073 231.361 286.231Z" fill="#1A2E35"/>
<path d="M201.224 364.543C201.224 364.543 231.445 369.206 287.273 359.863C287.273 359.863 259.696 291.516 240.475 274.026C231.732 266.063 223.966 268.016 217.733 274.076C216.183 275.591 197.636 303.418 196.608 312.677C195.715 320.858 202.976 329.292 202.976 329.292L201.207 364.56L201.224 364.543Z" fill="#2B454E"/>
<path d="M230.553 271.349C230.603 272.915 226.156 284.295 219.384 285.776C217.177 286.247 214.01 274.312 214.01 274.312L213.572 273.487L207.491 261.888L219.502 248.69L221.271 246.889C221.271 246.889 222.72 250.172 224.488 254.279C224.573 254.465 224.657 254.667 224.741 254.869C224.842 255.104 224.943 255.306 225.044 255.525C225.314 256.131 225.583 256.754 225.853 257.394C226.055 257.865 226.257 258.336 226.442 258.841C226.645 259.346 226.847 259.835 227.049 260.34C228.969 265.356 230.536 270.676 230.57 271.332L230.553 271.349Z" fill="#C36358"/>
<path d="M224.471 254.296C223.578 265.07 216.806 271.181 213.555 273.487L207.474 261.888L219.485 248.69L221.254 246.889C221.254 246.889 222.702 250.172 224.471 254.279V254.296Z" fill="#1A2E35"/>
<path d="M185.001 246.452C187.579 269.279 201.561 270.322 206.48 269.75C210.944 269.245 226.122 266.939 225.903 243.96C225.701 220.982 214.263 214.972 203.97 215.595C193.677 216.217 182.407 223.624 185.001 246.452Z" fill="#C36358"/>
<path d="M187.781 242.159C188.303 242.024 188.775 241.805 189.28 241.62C189.853 241.401 190.325 241.3 190.695 240.778C190.897 240.509 190.813 240.004 190.56 239.785C189.971 239.28 189.213 239.364 188.522 239.583C187.764 239.836 187.242 240.206 186.804 240.879C186.383 241.519 187.09 242.327 187.781 242.142V242.159Z" fill="#1A2E35"/>
<path d="M203.397 239.297C202.858 239.297 202.353 239.23 201.814 239.179C201.207 239.129 200.719 239.146 200.213 238.758C199.944 238.539 199.893 238.051 200.078 237.765C200.5 237.125 201.258 236.991 201.999 237.024C202.791 237.058 203.397 237.294 203.987 237.816C204.559 238.321 204.105 239.28 203.38 239.297H203.397Z" fill="#1A2E35"/>
<path d="M200.533 246.064C200.533 246.064 200.668 246.132 200.668 246.182C200.786 247.748 201.19 249.515 202.656 249.869C202.706 249.869 202.706 249.953 202.656 249.953C200.904 249.902 200.398 247.546 200.533 246.047V246.064Z" fill="#1A2E35"/>
<path d="M201.746 244.297C204.222 243.825 204.981 248.825 202.69 249.263C200.432 249.684 199.674 244.701 201.746 244.297Z" fill="#1A2E35"/>
<path d="M202.774 244.398C203.245 244.617 203.751 245.054 204.29 245.021C204.913 244.987 205.284 244.398 205.604 243.825C205.637 243.775 205.688 243.809 205.705 243.876C205.856 244.835 205.637 245.862 204.644 246.165C203.734 246.435 202.925 245.694 202.538 244.768C202.47 244.6 202.588 244.314 202.774 244.398Z" fill="#1A2E35"/>
<path d="M191.891 247.041C191.891 247.041 191.79 247.125 191.79 247.192C192.093 248.724 192.161 250.542 190.847 251.283C190.813 251.3 190.83 251.384 190.881 251.367C192.548 250.862 192.414 248.455 191.891 247.041Z" fill="#1A2E35"/>
<path d="M190.24 245.643C187.73 245.845 188.32 250.862 190.662 250.677C192.953 250.492 192.363 245.475 190.24 245.643Z" fill="#1A2E35"/>
<path d="M189.246 246.098C188.876 246.418 188.556 246.94 188.084 247.024C187.545 247.125 187.073 246.637 186.652 246.148C186.602 246.098 186.568 246.148 186.585 246.216C186.669 247.175 187.107 248.135 188.05 248.219C188.91 248.286 189.432 247.394 189.55 246.401C189.567 246.216 189.398 245.963 189.263 246.098H189.246Z" fill="#1A2E35"/>
<path d="M202.639 258.74C202.336 259.178 202.066 259.734 201.527 259.902C201.005 260.053 200.331 259.936 199.792 259.835C199.741 259.835 199.708 259.885 199.741 259.919C200.264 260.424 201.173 260.626 201.864 260.373C202.538 260.121 202.757 259.447 202.807 258.774C202.807 258.673 202.689 258.673 202.639 258.74Z" fill="#1A2E35"/>
<path d="M195.378 254.044C195.378 254.044 195.378 256.4 195.53 257.495C195.53 257.596 195.816 257.613 196.187 257.579C196.204 257.579 196.221 257.579 196.238 257.579C198.208 257.613 200.062 256.67 201.005 254.936C201.072 254.818 200.904 254.717 200.82 254.801C199.522 256.064 197.973 256.552 196.271 256.821C196.153 256.535 196.406 252.781 196.221 252.798C195.614 252.832 194.502 253.404 193.812 253.707C193.66 248.791 194.3 243.893 194.081 239.011C194.081 238.842 193.812 238.826 193.778 238.977C192.75 244.061 192.784 249.717 192.818 254.801C192.818 255.441 194.957 254.296 195.362 254.061L195.378 254.044Z" fill="#1A2E35"/>
<path d="M196.271 257.023C196.271 257.023 197.45 258.404 198.95 258.825C199.506 258.976 200.095 259.027 200.702 258.825C201.931 258.404 201.898 257.259 201.595 256.283C201.359 255.475 200.938 254.801 200.938 254.801C200.938 254.801 199.219 256.636 196.271 257.023Z" fill="#1A2E35"/>
<path d="M198.95 258.841C199.506 258.993 200.095 259.043 200.702 258.841C201.931 258.421 201.898 257.276 201.595 256.299C200.247 256.535 198.983 257.528 198.95 258.858V258.841Z" fill="#FB6A55"/>
<path d="M224.404 245.93C221.894 245.98 214.886 239.617 213.757 227.597C213.757 227.597 215.509 238.321 216.436 239.836C217.362 241.351 212.511 236.25 211.466 226.587C211.466 226.587 206.379 230.88 201.898 232.513C197.417 234.146 194.603 234.314 194.25 234.011C193.896 233.708 200.483 231.065 202.15 228.826C202.15 228.826 190.392 235.425 184.799 236.284C184.159 236.385 182.357 223.086 190.611 216.739C198.865 210.393 213.1 215.477 217.076 218.759C217.076 218.759 221.473 219.046 226.678 225.106C231.9 231.166 227.065 245.879 224.37 245.93H224.404Z" fill="#1A2E35"/>
<path d="M227.689 251.721C227.352 251.939 227.015 252.091 226.695 252.192C226.324 252.343 225.97 252.411 225.634 252.428C225.111 252.478 224.657 252.411 224.252 252.276C223.882 252.158 223.545 251.973 223.275 251.788C222.551 251.283 222.163 250.694 222.163 250.694L222.197 244.431C222.197 244.431 225.701 236.402 229.239 237.529C232.793 238.64 231.159 249.583 227.689 251.721Z" fill="#C36358"/>
<path d="M228.699 240.644C228.699 240.644 228.784 240.711 228.733 240.745C226.324 242.344 225.431 245.054 224.977 247.765C225.566 246.637 226.526 245.896 228.009 246.553C228.093 246.586 228.043 246.704 227.958 246.704C226.83 246.704 226.088 247.041 225.549 248.034C225.162 248.741 224.96 249.583 224.741 250.374C224.673 250.626 224.218 250.593 224.252 250.307C224.252 250.29 224.252 250.256 224.252 250.239C223.511 246.906 225.162 241.687 228.699 240.627V240.644Z" fill="#1A2E35"/>
<path d="M227.2 261.215C226.863 261.821 226.425 262.006 226.105 262.057C225.229 262.191 223.562 261.383 222.921 257.461C222.517 254.936 222.955 252.865 223.275 251.805C223.427 251.35 223.528 251.064 223.545 251.03C223.663 250.761 223.983 250.643 224.252 250.761C224.522 250.879 224.64 251.199 224.522 251.468C224.522 251.468 224.387 251.771 224.252 252.293C223.983 253.286 223.646 255.121 223.983 257.293C224.505 260.508 225.667 261.047 225.92 260.996C226.038 260.979 226.139 260.878 226.24 260.693C227.032 259.245 226.577 254.801 225.634 252.461C225.971 252.444 226.324 252.36 226.695 252.226C227.605 254.633 228.211 259.397 227.183 261.232L227.2 261.215Z" fill="#FFC800"/>
<path d="M238.217 289.564C230.586 312.492 195.732 355.065 182.205 357.237C166.555 359.745 126.597 339.241 117.567 330.252C113.979 326.666 137.917 303.536 142.668 306.162C162.563 317.155 179.24 321.599 182.239 320.168C186.838 317.98 207.221 298.166 220.597 284.766C237.409 267.915 241.62 279.295 238.201 289.58L238.217 289.564Z" fill="#C36358"/>
<path d="M118.561 331.009C116.506 329.898 103.164 316.717 99.5254 310.926C97.2006 307.239 93.2082 300.859 90.7318 291.281C87.868 280.238 86.9415 272.326 88.5419 269.093C90.3949 265.339 90.8497 264.75 98.582 283.537C102.962 294.159 108.386 296.112 113.255 296.769C133.217 299.445 146.626 309.192 146.626 309.192C146.626 309.192 126.479 335.268 118.561 331.009Z" fill="#C36358"/>
<path d="M107.376 254.498L125.704 288.436C126.243 289.429 125.839 290.372 124.794 290.523L106.23 293.25C105.186 293.402 103.905 292.712 103.366 291.718L85.0379 257.781C84.4989 256.788 84.9032 255.845 85.9308 255.693L104.495 252.966C105.539 252.815 106.82 253.505 107.359 254.498H107.376Z" fill="#1A2E35"/>
<path d="M109.043 254.33L127.372 288.267C127.911 289.261 127.506 290.203 126.462 290.355L107.898 293.082C106.853 293.234 105.573 292.543 105.034 291.55L86.7056 257.613C86.1666 256.619 86.5709 255.677 87.5985 255.525L106.163 252.798C107.207 252.646 108.487 253.337 109.026 254.33H109.043Z" fill="#2B454E"/>
<path d="M108.791 256.198L125.603 287.308C126.125 288.251 125.771 289.143 124.845 289.277L108.235 291.718C107.308 291.853 106.129 291.197 105.624 290.237L88.8114 259.128C87.767 257.192 88.2892 256.653 89.2157 256.518L92.5344 256.03C92.7197 255.996 92.9892 256.182 93.1408 256.451L93.2082 256.569C93.5283 257.175 93.882 257.124 94.32 257.057L102.019 255.929C102.457 255.862 102.794 255.811 102.473 255.205L102.406 255.087C102.271 254.835 102.305 254.599 102.507 254.566L105.843 254.077C106.769 253.943 107.847 254.414 108.807 256.198H108.791Z" fill="white"/>
<path d="M98.8179 255.576L96.7122 255.879C96.7122 255.879 96.5605 255.845 96.51 255.778C96.51 255.778 96.51 255.643 96.5774 255.643L98.6831 255.34C98.6831 255.34 98.8347 255.374 98.8853 255.441C98.8853 255.441 98.8853 255.576 98.8179 255.576Z" fill="white"/>
<path d="M115.765 274.968L101.665 277.039L94.4547 263.69L108.555 261.619L115.765 274.968Z" fill="#FFC800"/>
<path d="M111.082 278.015L102.844 279.228L102.423 278.436L110.644 277.224L111.082 278.015Z" fill="#A8A8A8"/>
<path d="M113.288 279.076L103.535 280.507L103.333 280.12L113.069 278.689L113.288 279.076Z" fill="#A8A8A8"/>
<path d="M113.676 279.8L103.922 281.231L103.72 280.844L113.457 279.413L113.676 279.8Z" fill="#A8A8A8"/>
<path d="M114.063 280.524L104.31 281.955L104.107 281.551L113.844 280.12L114.063 280.524Z" fill="#A8A8A8"/>
<path d="M94.0167 259.363L92.2648 259.633L92.0795 259.313L93.8314 259.043L94.0167 259.363Z" fill="#A8A8A8"/>
<path d="M94.3368 259.969L92.568 260.222L92.3995 259.902L94.1515 259.633L94.3368 259.969Z" fill="#A8A8A8"/>
<path d="M94.6569 260.558L92.8881 260.811L92.7196 260.491L94.4716 260.222L94.6569 260.558Z" fill="#A8A8A8"/>
<path d="M116.658 276.955C116.59 277.258 116.422 277.409 116.422 277.409C116.422 277.409 116.102 277.325 115.731 277.09C115.31 276.82 115.108 276.383 115.462 276.332C115.731 276.298 116.001 276.635 116.001 276.635C116.001 276.635 115.866 276.265 116.135 276.231C116.472 276.181 116.742 276.601 116.658 276.955Z" fill="#FFC800"/>
<path d="M120.566 286.567L109.178 288.234L107.51 285.153L118.898 283.487L120.566 286.567Z" fill="#FFC800"/>
<path d="M110.829 296.331C115.832 297.173 101.092 284.513 101.732 278.773C102.356 273.033 107.645 275.676 111.537 279.564C125.03 293.065 136.603 294.294 142.685 306.145C148.766 318.013 110.846 296.314 110.846 296.314L110.829 296.331Z" fill="#C36358"/>
<path d="M191.083 313.283C189.617 314.343 188.202 315.488 186.787 316.599C185.473 317.626 184.176 318.788 182.677 319.562C180.925 320.454 179.004 320.202 177.151 319.831C175.5 319.495 173.883 319.057 172.283 318.569C165.713 316.566 159.345 313.956 153.112 311.061C149.692 309.478 146.054 307.963 142.836 305.994L143.207 306.448C142.583 304.984 141.303 303.098 140.36 301.869C139.079 300.203 137.597 298.721 135.997 297.392C134.278 295.977 132.476 294.681 130.606 293.503C129.629 292.88 128.635 292.274 127.641 291.685C127.136 291.399 126.63 291.096 126.142 290.809C125.704 290.557 124.659 290.136 124.373 289.732C124.491 289.9 124.727 289.681 124.575 289.564C124.558 289.547 124.525 289.53 124.508 289.513C124.457 289.479 124.39 289.463 124.339 289.513C124.306 289.547 124.289 289.564 124.255 289.597C124.221 289.631 124.221 289.681 124.255 289.715C124.407 290.001 124.76 290.136 125.013 290.321C125.485 290.658 125.94 291.011 126.395 291.365C127.254 292.005 128.113 292.644 128.972 293.267C130.926 294.681 132.88 296.095 134.716 297.627C136.3 298.94 137.799 300.337 139.181 301.853C139.888 302.627 140.528 303.435 141.202 304.243C141.977 305.152 142.213 305.741 142.853 306.751C142.904 306.819 148.934 310.185 152.068 311.818C155.235 313.451 158.469 314.916 161.771 316.246C165.056 317.576 168.408 318.788 171.794 319.848C173.512 320.387 175.264 320.858 177.05 321.178C178.617 321.447 180.386 321.767 181.902 321.111C183.536 320.421 184.816 318.939 186.147 317.811C187.848 316.364 189.567 314.949 191.217 313.451C191.285 313.384 191.184 313.266 191.116 313.317L191.083 313.283Z" fill="#1A2E35"/>
<path d="M190.78 312.391L214.027 334.174C214.027 334.174 233.838 309.815 239.06 290.995C244.282 272.174 234.579 269.615 217.278 286.719C200.365 303.452 190.78 312.391 190.78 312.391Z" fill="#2B454E"/>
<path d="M208.922 294.816C205.924 297.459 203.026 300.27 200.163 303.065C198.764 304.428 197.383 305.792 196.035 307.189C195.311 307.93 194.603 308.67 193.879 309.394C193.104 310.185 192.346 311.095 191.436 311.751C191.268 311.869 191.487 312.088 191.605 311.953C192.835 310.421 194.57 309.175 196.018 307.862C197.551 306.482 199.051 305.068 200.533 303.637C203.448 300.826 206.345 297.93 209.024 294.9C209.091 294.833 208.99 294.732 208.922 294.799V294.816Z" fill="#1A2E35"/>
<path d="M233.012 308.367C232.237 309.293 231.412 310.135 230.485 310.926C230.131 311.229 229.795 311.549 229.441 311.886C231.007 309.293 232.507 306.667 233.871 303.991C233.905 303.94 233.821 303.89 233.787 303.94C230.35 309.024 227.167 314.293 223.73 319.377C220.226 324.545 217.042 329.949 213.319 334.965C213.201 335.117 213.42 335.268 213.521 335.117C217.126 330.05 221.018 325.202 224.37 319.949C225.701 317.862 227.049 315.741 228.363 313.603C228.784 313.3 229.154 312.929 229.525 312.576C229.963 312.155 230.401 311.734 230.788 311.263C231.563 310.32 232.372 309.428 233.197 308.536C233.315 308.418 233.113 308.233 233.012 308.351V308.367Z" fill="#1A2E35"/>
<path d="M184.142 314.731C184.816 314.175 191.268 308.856 191.268 308.856L217.834 333.804L212.022 341.379L184.125 314.731H184.142Z" fill="#2B454E"/>
<path d="M214.616 330.521C211.331 327.154 207.777 324.04 204.34 320.841C200.887 317.643 197.215 314.663 193.879 311.347C193.761 311.229 193.576 311.414 193.694 311.532C197.08 314.798 200.213 318.316 203.683 321.515C207.137 324.696 210.641 327.912 214.414 330.723C214.549 330.824 214.734 330.656 214.599 330.521H214.616Z" fill="#1A2E35"/>
<path d="M207.457 337.002C209.141 338.298 210.742 339.696 212.309 341.11L211.736 341.16C213.622 338.585 215.577 336.076 217.666 333.669V333.972C217.059 333.299 216.436 332.625 215.846 331.935C216.587 332.491 217.295 333.063 218.002 333.652L218.154 333.77L218.036 333.955C216.267 336.598 214.347 339.14 212.342 341.632L212.073 341.968L211.786 341.665C210.304 340.15 208.838 338.618 207.457 337.002Z" fill="#1A2E35"/>
<path d="M230.519 276.618C228.935 277.207 227.52 278.167 226.139 279.143C224.774 280.137 223.444 281.18 222.18 282.308C219.653 284.564 217.261 286.938 214.785 289.244C214.785 289.244 214.768 289.244 214.751 289.244C214.751 289.244 214.751 289.227 214.751 289.21C215.829 287.897 216.992 286.668 218.171 285.456C219.384 284.278 220.647 283.133 221.961 282.056C223.258 280.961 224.606 279.935 226.021 278.975C227.436 278.049 228.885 277.14 230.502 276.585C230.502 276.585 230.519 276.585 230.536 276.585C230.536 276.585 230.536 276.601 230.536 276.618H230.519Z" fill="#1A2E35"/>
<path d="M415.722 259.01H432.939V262.377H416.059C416.716 265.558 418.249 268.42 420.422 270.659L315.961 269.514L323.946 262.377L327.703 259.01L364.814 225.83L363.517 173.156H432.939V242.176H432.568C423.269 242.176 415.722 249.717 415.722 259.01Z" fill="white"/>
<path d="M432.939 242.176V259.01H415.722C415.722 249.717 423.269 242.176 432.568 242.176H432.939Z" fill="#FFC800"/>
<path d="M432.939 262.377V270.794L420.422 270.659C418.249 268.42 416.716 265.558 416.059 262.377H432.939Z" fill="white"/>
<path d="M432.939 259.01V262.377H416.059C415.84 261.299 415.722 260.171 415.722 259.01H432.939Z" fill="#FFC800"/>
<path d="M432.939 259.01V262.377H323.946L327.703 259.01H432.939Z" fill="#ED5B50"/>
<path d="M339.916 237.125L358.446 250.593" stroke="#1B1B1B" stroke-linecap="round" stroke-linejoin="round"/>
<path d="M348.339 230.392L366.869 243.859" stroke="#1B1B1B" stroke-linecap="round" stroke-linejoin="round"/>
<path d="M364.814 225.83C364.814 225.83 334.862 233.759 336.547 221.975C338.231 210.191 364.814 225.83 364.814 225.83Z" stroke="#1B1B1B" stroke-linecap="round" stroke-linejoin="round"/>
<path d="M364.747 226.234C364.747 226.234 340.388 207.11 350.815 201.353C361.243 195.596 364.747 226.234 364.747 226.234Z" stroke="#1B1B1B" stroke-linecap="round" stroke-linejoin="round"/>
<path d="M410.348 206.117C406.828 212.564 398.405 218.237 398.405 218.237C398.405 218.237 389.982 212.564 386.478 206.117C382.519 198.845 384.692 191.387 390.403 191.387C396.754 191.387 398.405 199.316 398.405 199.316C398.405 199.316 400.073 191.387 406.407 191.387C412.1 191.387 414.324 198.845 410.348 206.117Z" fill="#ED5B50"/>
</g>
<defs>
<clipPath id="clip0_17_293">
<rect width="763" height="630" fill="white"/>
</clipPath>
</defs>
</svg>
