<?xml version="1.0" encoding="UTF-8"?><svg id="Layer_1" xmlns="http://www.w3.org/2000/svg" viewBox="0 0 48 48"><defs><style>.cls-1{fill:#1f1f1f;}</style></defs><path class="cls-1" d="m24,34.81c.52,0,.97-.18,1.32-.53.36-.36.53-.8.53-1.32s-.18-.97-.53-1.32c-.36-.35-.8-.53-1.32-.53s-.97.18-1.32.53c-.36.36-.53.8-.53,1.32,0,.52.18.97.53,1.32.36.36.8.53,1.32.53Zm-1.72-7.99h3.44v-13.85h-3.44v13.85Zm-6.4,16.68l-11.38-11.37V15.88L15.87,4.5h16.25l11.38,11.37v16.25l-11.37,11.38H15.88Zm1.46-3.44h13.31l9.41-9.41v-13.31l-9.41-9.41h-13.31l-9.41,9.41v13.31l9.41,9.41Z"/></svg>