<?xml version="1.0" encoding="UTF-8"?><svg id="Layer_1" xmlns="http://www.w3.org/2000/svg" viewBox="0 0 48 48"><path d="m13.39,19.19c-2.77-3.25-2.99-6.44-.61-8.8,2.07-2.06,4.92-1.88,7.62.48,1.61-2.15,3.66-3.3,6.25-2,2.42,1.2,2.89,3.43,2.35,6.01.7.13,1.34.25,2.03.38.32-.88.63-1.71.89-2.55.06-.18-.06-.41-.13-.6-.32-.82-.16-1.62.5-2.15.64-.51,1.37-.55,2.06-.15.7.42.95,1.09.8,1.9-.16.82-.76,1.37-1.66,1.39-.5,0-.69.22-.8.61-.09.31-.2.63-.29.93-.07.26-.13.53-.2.83,1.05.42,2.07.85,3.12,1.26.35-1.05.7-2.09,1.01-3.14.04-.18-.06-.41-.13-.6-.32-.82-.13-1.65.51-2.15.64-.5,1.34-.55,2.06-.15.67.39.99,1.18.79,1.97-.19.74-.83,1.31-1.66,1.31-.5,0-.67.22-.79.63-.03.1-.07.2-.12.31-.5,1.45-.16,2.65.99,3.59,6.33,5.17,5.63,14.13-1.5,18.37-5.6,3.34-11.56,3.49-17.62,1.42-3.05-1.05-5.68-2.79-7.47-5.53-.63-.96-.98-2.1-1.5-3.14-.15-.29-.42-.63-.72-.74-.83-.34-1.72-.53-2.54-.86-.35-.15-.6-.54-.89-.82.29-.31.54-.74.89-.89.82-.35,1.71-.54,2.55-.83.25-.09.55-.31.61-.53.6-2.19,1.77-4.01,3.42-5.56.07-.07.13-.16.19-.25v.03Zm18.48,17.48c3.72-.2,6.73-1.85,8.45-5.39,1.71-3.52,1.15-6.89-1.14-9.98-1.26-1.69-3.09-1.9-4.76-.57-.47.38-.77.31-1.2-.06-3.18-2.69-7.59-1.98-9.66,1.58-1.87,3.18-1.98,6.49-.1,9.69,1.82,3.11,4.68,4.58,8.41,4.71h0Zm-.01,1.18c-.23-.07-.25-.09-.28-.09-.19,0-.38,0-.57-.03-3.91-.38-6.93-2.19-8.74-5.71-1.87-3.6-1.62-7.21.58-10.61,1.59-2.47,3.94-3.59,6.87-3.42,1.56.1,2.92.79,4.04,1.68.86-.35,1.65-.67,2.44-.99-.06-.06-.1-.13-.16-.18-.13-.1-.26-.19-.41-.28-3.96-2.23-8.19-2.79-12.61-2.1-.29.04-.6.25-.8.47-5.28,5.79-5.25,15.46.04,21.29.18.19.42.38.66.41,2.93.47,5.84.35,8.93-.45Zm-11.4,0c-4.44-7.15-4.45-14.13.2-21.19-.29.07-.48.1-.64.16-.8.32-1.63.61-2.41.99-.34.16-.69.45-.88.79-3.34,5.76-3.37,11.53,0,17.29.13.22.31.48.54.58,1.05.48,2.12.92,3.18,1.37Zm-1.72-21.78c2.26-.54,2.54-1.14,1.53-3.33-.1-.22-.22-.44-.35-.64-1.49-2.28-4.51-2.71-6.35-.93-1.93,1.87-1.71,5.43.47,7.02.16.12.48.18.63.1.96-.55,1.9-1.15,2.9-1.78-.1-.31-.18-.66-.35-.95-.54-.93-1.15-1.84-1.68-2.77-.13-.23-.07-.57-.1-.86.29.04.61.01.85.15.22.12.39.38.53.6.63,1.09,1.24,2.22,1.91,3.4h.01Zm-3.79,18.89c-2.35-5.22-2.34-10.27-.01-15.41-5.6,4.04-5.63,11.15.01,15.41Zm7.11-19.62c.25-.32.47-.55.63-.82.61-1.08,1.18-2.19,1.84-3.24.15-.22.73-.42.9-.31.48.32.1.66-.13,1.01-.58.89-1.12,1.82-1.74,2.83,1.47,0,2.71,0,3.96-.01.15,0,.36-.2.44-.36.7-1.68-.26-4-1.93-4.68-1.78-.73-4.01.19-4.71,1.94-.07.16-.1.38-.06.54.23.96.5,1.93.8,3.11Zm16.78-3.02c-.45-.35-.73-.72-.95-.69-.28.04-.64.38-.72.64-.04.18.36.64.6.66.28.01.57-.31,1.05-.61h.01Zm-5.33.04c.29-.48.61-.79.58-1.05-.01-.23-.51-.63-.67-.58-.28.09-.6.45-.64.73-.03.2.36.48.73.9Zm-23.94,14.22c-.66.2-1.26.38-1.84.57v.18c.58.19,1.17.36,1.82.58v-1.31h.01Z"/></svg>