<svg width="24" height="24" viewBox="0 0 24 24" fill="none" xmlns="http://www.w3.org/2000/svg">
<path d="M7.90377 21.5C7.48843 21.5 7.1346 21.3538 6.84227 21.0615C6.5501 20.7692 6.40402 20.4153 6.40402 20V19C6.40402 18.2743 6.5716 17.5958 6.90677 16.9645C7.2421 16.333 7.70393 15.8051 8.29227 15.3808L7.60002 10.8463H5.69227C5.18727 10.8463 4.75977 10.6713 4.40977 10.3213C4.05977 9.97126 3.88477 9.54368 3.88477 9.03851V5.30776C3.88477 4.80909 4.06135 4.38309 4.41452 4.02976C4.76768 3.67659 5.1936 3.50001 5.69227 3.50001H10V2.61551H14V3.50001H17.5135L15.7078 15.3808C16.2961 15.8051 16.7579 16.333 17.0933 16.9645C17.4284 17.5958 17.596 18.2743 17.596 19V20C17.596 20.4153 17.4499 20.7692 17.1578 21.0615C16.8654 21.3538 16.5116 21.5 16.0963 21.5H7.90377ZM7.37702 9.34626L6.70977 5.00001H5.69227C5.61543 5.00001 5.54493 5.03209 5.48077 5.09626C5.41677 5.16026 5.38477 5.23076 5.38477 5.30776V9.03851C5.38477 9.11534 5.41677 9.18584 5.48077 9.25001C5.54493 9.31418 5.61543 9.34626 5.69227 9.34626H7.37702ZM12 18.8845C12.2513 18.8845 12.4616 18.7999 12.6308 18.6308C12.7999 18.4616 12.8845 18.2513 12.8845 18C12.8845 17.7487 12.7999 17.5384 12.6308 17.3693C12.4616 17.2001 12.2513 17.1155 12 17.1155C11.7487 17.1155 11.5384 17.2001 11.3693 17.3693C11.2001 17.5384 11.1155 17.7487 11.1155 18C11.1155 18.2513 11.2001 18.4616 11.3693 18.6308C11.5384 18.7999 11.7487 18.8845 12 18.8845ZM9.68077 14.5H14.3193L15.7655 5.00001H8.23452L9.68077 14.5ZM7.90377 20H16.0963V19C16.0963 18.1667 15.8046 17.4583 15.2213 16.875C14.6379 16.2917 13.9296 16 13.0963 16H10.9038C10.0704 16 9.3621 16.2917 8.77877 16.875C8.19543 17.4583 7.90377 18.1667 7.90377 19V20Z" fill="#212121"/>
</svg>
