<svg width="24" height="24" viewBox="0 0 24 24" fill="none" xmlns="http://www.w3.org/2000/svg">
<path d="M7.00006 19.75C6.26922 19.75 5.64389 19.5029 5.12406 19.0088C4.60422 18.5144 4.32314 17.8987 4.28081 17.1615C3.69231 16.8602 3.22914 16.4268 2.89131 15.8615C2.55364 15.2962 2.38481 14.6757 2.38481 14C2.38481 13.168 2.63414 12.435 3.13281 11.801C3.63147 11.167 4.28339 10.7423 5.08856 10.527L3.13481 8.57301L2.68081 9.02702C2.53597 9.17185 2.35714 9.24743 2.14431 9.25377C1.93147 9.26027 1.75264 9.1911 1.60781 9.04626C1.46297 8.90143 1.39372 8.7226 1.40006 8.50977C1.40656 8.29693 1.48222 8.1181 1.62706 7.97327L3.58856 6.01152C3.73339 5.86668 3.91222 5.7911 4.12506 5.78477C4.33789 5.77827 4.51672 5.84743 4.66156 5.99227C4.80639 6.13727 4.87564 6.31618 4.86931 6.52901C4.86281 6.74168 4.78714 6.92052 4.64231 7.06552L4.18856 7.51927L5.91556 9.24626L6.79231 6.66552C6.96664 6.13852 7.27631 5.70993 7.72131 5.37977C8.16614 5.04977 8.66547 4.88477 9.21931 4.88477H14.7423C15.2961 4.88477 15.7956 5.04977 16.2406 5.37977C16.6854 5.70993 16.995 6.13852 17.1693 6.66552L18.4423 10.4463C19.3538 10.5591 20.1106 10.9517 20.7126 11.624C21.3144 12.2965 21.6153 13.0885 21.6153 14C21.6153 14.6757 21.4465 15.2962 21.1088 15.8615C20.771 16.4268 20.3078 16.8602 19.7193 17.1615C19.677 17.8987 19.3959 18.5144 18.8761 19.0088C18.3562 19.5029 17.7309 19.75 17.0001 19.75C16.3604 19.75 15.796 19.549 15.3068 19.147C14.8176 18.7452 14.5064 18.2346 14.3731 17.6153H9.62706C9.49372 18.2346 9.18247 18.7452 8.69331 19.147C8.20414 19.549 7.63972 19.75 7.00006 19.75ZM7.13081 10.3848H11.2308V6.38477H9.21931C8.98981 6.38477 8.78531 6.45368 8.60581 6.59151C8.42631 6.72918 8.29489 6.91277 8.21156 7.14227L7.13081 10.3848ZM12.7308 10.3848H16.8308L15.7501 7.14227C15.6667 6.91277 15.5353 6.72918 15.3558 6.59151C15.1763 6.45368 14.9718 6.38477 14.7423 6.38477H12.7308V10.3848ZM9.58856 16.1155H14.4116C14.6026 15.5603 14.9346 15.1106 15.4078 14.7663C15.8808 14.4221 16.4116 14.25 17.0001 14.25C17.4872 14.25 17.9379 14.3683 18.3521 14.6048C18.7661 14.8414 19.1038 15.1629 19.3653 15.5693C19.5988 15.3796 19.7822 15.1466 19.9156 14.8703C20.0489 14.5939 20.1156 14.3038 20.1156 14C20.1156 13.418 19.9085 12.9199 19.4943 12.5058C19.0801 12.0916 18.5821 11.8845 18.0001 11.8845H6.00006C5.41806 11.8845 4.91997 12.0916 4.50581 12.5058C4.09164 12.9199 3.88456 13.418 3.88456 14C3.88456 14.3038 3.95122 14.5939 4.08456 14.8703C4.21789 15.1466 4.40131 15.3796 4.63481 15.5693C4.88981 15.1564 5.22597 14.8333 5.64331 14.6C6.06064 14.3667 6.51289 14.25 7.00006 14.25C7.58856 14.25 8.11931 14.4221 8.59231 14.7663C9.06547 15.1106 9.39756 15.5603 9.58856 16.1155ZM7.00006 18.25C7.34756 18.25 7.64272 18.1285 7.88556 17.8855C8.12856 17.6427 8.25006 17.3475 8.25006 17C8.25006 16.6525 8.12856 16.3573 7.88556 16.1145C7.64272 15.8715 7.34756 15.75 7.00006 15.75C6.65256 15.75 6.35739 15.8715 6.11456 16.1145C5.87156 16.3573 5.75006 16.6525 5.75006 17C5.75006 17.3475 5.87156 17.6427 6.11456 17.8855C6.35739 18.1285 6.65256 18.25 7.00006 18.25ZM17.0001 18.25C17.3476 18.25 17.6427 18.1285 17.8856 17.8855C18.1286 17.6427 18.2501 17.3475 18.2501 17C18.2501 16.6525 18.1286 16.3573 17.8856 16.1145C17.6427 15.8715 17.3476 15.75 17.0001 15.75C16.6526 15.75 16.3574 15.8715 16.1146 16.1145C15.8716 16.3573 15.7501 16.6525 15.7501 17C15.7501 17.3475 15.8716 17.6427 16.1146 17.8855C16.3574 18.1285 16.6526 18.25 17.0001 18.25Z" fill="#212121"/>
</svg>
