<?xml version="1.0" encoding="UTF-8"?><svg id="Layer_1" xmlns="http://www.w3.org/2000/svg" viewBox="0 0 48 48"><defs><style>.cls-1{fill:#1f1f1f;}</style></defs><path class="cls-1" d="m21.09,32.73l13.8-13.8-2.16-2.16-11.64,11.64-5.85-5.85-2.16,2.16s8.01,8.01,8.01,8.01Zm2.92,10.77c-2.7,0-5.23-.51-7.61-1.54-2.37-1.02-4.44-2.41-6.19-4.17-1.76-1.75-3.15-3.82-4.17-6.19-1.02-2.37-1.54-4.91-1.54-7.6s.51-5.23,1.54-7.61c1.02-2.37,2.41-4.44,4.17-6.19,1.75-1.76,3.82-3.15,6.19-4.17,2.37-1.02,4.91-1.54,7.6-1.54s5.23.51,7.61,1.54,4.44,2.41,6.19,4.17,3.15,3.82,4.17,6.19c1.02,2.37,1.54,4.91,1.54,7.6s-.51,5.23-1.54,7.61c-1.02,2.37-2.41,4.44-4.17,6.19-1.75,1.76-3.82,3.15-6.19,4.17-2.37,1.02-4.91,1.54-7.6,1.54Zm0-3.08c4.58,0,8.47-1.59,11.65-4.77s4.77-7.06,4.77-11.65-1.59-8.47-4.77-11.65-7.06-4.77-11.65-4.77-8.47,1.59-11.65,4.77-4.77,7.06-4.77,11.65,1.59,8.47,4.77,11.65,7.06,4.77,11.65,4.77Z"/></svg>