<svg width="24" height="24" viewBox="0 0 24 24" fill="none" xmlns="http://www.w3.org/2000/svg">
<path d="M6.5001 10.1135L5.10585 10.8845C4.89185 11.005 4.67069 11.0368 4.44235 10.9798C4.21419 10.9227 4.03985 10.7872 3.91935 10.573L2.3041 7.74625C2.1836 7.53208 2.15185 7.30933 2.20885 7.078C2.26585 6.8465 2.40144 6.6705 2.6156 6.55L7.8656 3.5H9.34635C9.51552 3.5 9.65077 3.55067 9.7521 3.652C9.85327 3.75333 9.90385 3.88858 9.90385 4.05775V4.404C9.90385 4.97317 10.1109 5.46483 10.5251 5.879C10.9393 6.293 11.4309 6.5 12.0001 6.5C12.5693 6.5 13.0609 6.293 13.4751 5.879C13.8893 5.46483 14.0964 4.97317 14.0964 4.404V4.05775C14.0964 3.88858 14.1469 3.75333 14.2481 3.652C14.3494 3.55067 14.4847 3.5 14.6539 3.5H16.1346L21.3846 6.55C21.5988 6.6705 21.7344 6.8465 21.7914 7.078C21.8484 7.30933 21.8166 7.53208 21.6961 7.74625L20.0809 10.573C19.9604 10.7872 19.7885 10.9202 19.5654 10.972C19.3424 11.024 19.1187 10.9898 18.8944 10.8693L17.5001 10.1288V19.6152C17.5001 19.8666 17.4154 20.0768 17.2461 20.246C17.0769 20.4153 16.8667 20.5 16.6154 20.5H7.38485C7.13352 20.5 6.92327 20.4153 6.7541 20.246C6.58477 20.0768 6.5001 19.8666 6.5001 19.6152V10.1135ZM8.0001 7.6V19H16.0001V7.6L19.0809 9.2905L20.1116 7.55L15.8214 5.03075H15.5039C15.35 5.87442 14.9514 6.58017 14.3079 7.148C13.6642 7.716 12.8949 8 12.0001 8C11.1053 8 10.336 7.716 9.69235 7.148C9.04885 6.58017 8.65019 5.87442 8.49635 5.03075H8.17885L3.8886 7.55L4.91935 9.2905L8.0001 7.6Z" fill="#1F1F1F"/>
</svg>
