<svg width="24" height="24" viewBox="0 0 24 24" fill="none" xmlns="http://www.w3.org/2000/svg">
<path d="M6.30775 14.2692H17.6923C17.7821 14.2692 17.8558 14.2388 17.9135 14.178C17.9712 14.117 18 14.032 18 13.923V11.298C18 11.1955 17.9712 11.1122 17.9135 11.048C17.8558 10.984 17.7821 10.952 17.6923 10.952H10.0963V6H8C7.45 6 6.97917 6.20242 6.5875 6.60725C6.19583 7.01208 6 7.49875 6 8.06725V13.923C6 14.032 6.02883 14.117 6.0865 14.178C6.14417 14.2388 6.21792 14.2692 6.30775 14.2692ZM12.0025 20C12.379 20 12.7548 19.9712 13.1298 19.9135C13.5048 19.8558 13.8782 19.7757 14.25 19.673V15.7692H9.75V19.673C10.1218 19.7757 10.496 19.8558 10.8725 19.9135C11.2492 19.9712 11.6258 20 12.0025 20ZM12 21.5C10.7347 21.5 9.52475 21.2587 8.37025 20.776C7.21575 20.2933 6.18275 19.6109 5.27125 18.7288L6.3405 17.6595C6.6225 17.9417 6.92342 18.1997 7.24325 18.4337C7.56308 18.6677 7.89867 18.8764 8.25 19.0598V15.7692H6.30775C5.80258 15.7692 5.375 15.591 5.025 15.2345C4.675 14.8782 4.5 14.441 4.5 13.923V8.06725C4.5 7.08275 4.84275 6.24208 5.52825 5.54525C6.21358 4.84842 7.0375 4.5 8 4.5H11.596V9.452H17.6923C18.1974 9.452 18.625 9.63183 18.975 9.9915C19.325 10.351 19.5 10.7865 19.5 11.298V13.923C19.5 14.441 19.325 14.8782 18.975 15.2345C18.625 15.591 18.1974 15.7692 17.6923 15.7692H15.75V19.0598C16.1013 18.8764 16.4369 18.6677 16.7568 18.4337C17.0766 18.1997 17.3775 17.9417 17.6595 17.6595L18.7288 18.7288C17.8173 19.6109 16.7843 20.2933 15.6298 20.776C14.4753 21.2587 13.2653 21.5 12 21.5Z" fill="#212121"/>
</svg>
