<svg width="48" height="48" viewBox="0 0 48 48" fill="none" xmlns="http://www.w3.org/2000/svg">
<path d="M24 40.6535L21.7925 38.669C18.4772 35.6613 15.7355 33.0768 13.5675 30.9155C11.3995 28.7538 9.6815 26.83 8.4135 25.144C7.1455 23.4583 6.25967 21.9205 5.756 20.5305C5.252 19.1408 5 17.7307 5 16.3C5 13.4617 5.957 11.0853 7.871 9.171C9.78533 7.257 12.1617 6.3 15 6.3C16.746 6.3 18.396 6.70834 19.95 7.525C21.504 8.34167 22.854 9.51284 24 11.0385C25.146 9.51284 26.496 8.34167 28.05 7.525C29.604 6.70834 31.254 6.3 33 6.3C35.8383 6.3 38.2147 7.257 40.129 9.171C42.043 11.0853 43 13.4617 43 16.3C43 17.7307 42.748 19.1408 42.244 20.5305C41.7403 21.9205 40.8545 23.4583 39.5865 25.144C38.3185 26.83 36.6037 28.7538 34.442 30.9155C32.2807 33.0768 29.5358 35.6613 26.2075 38.669L24 40.6535ZM24 36.6C27.2 33.7207 29.8333 31.2527 31.9 29.196C33.9667 27.1397 35.6 25.3532 36.8 23.8365C38 22.3198 38.8333 20.973 39.3 19.796C39.7667 18.6193 40 17.454 40 16.3C40 14.3 39.3333 12.6333 38 11.3C36.6667 9.96667 35 9.3 33 9.3C31.4207 9.3 29.961 9.748 28.621 10.644C27.2813 11.5403 26.2205 12.7872 25.4385 14.3845H22.5615C21.7665 12.7742 20.7023 11.5242 19.369 10.6345C18.0357 9.74484 16.5793 9.3 15 9.3C13.0127 9.3 11.3492 9.96667 10.0095 11.3C8.66983 12.6333 8 14.3 8 16.3C8 17.454 8.23333 18.6193 8.7 19.796C9.16667 20.973 10 22.3198 11.2 23.8365C12.4 25.3532 14.0333 27.1365 16.1 29.1865C18.1667 31.2365 20.8 33.7077 24 36.6Z" fill="#1F1F1F"/>
</svg>
