<?xml version="1.0" encoding="UTF-8"?><svg id="Layer_1" xmlns="http://www.w3.org/2000/svg" viewBox="0 0 48 48"><defs><style>.cls-1{fill:#1f1f1f;}</style></defs><path class="cls-1" d="m22.46,33.75h3.08v-11.8h-3.08v11.8Zm1.54-15.32c.47,0,.86-.16,1.18-.48.32-.32.48-.71.48-1.18s-.16-.86-.48-1.18c-.32-.32-.71-.48-1.18-.48s-.86.16-1.18.48c-.32.32-.48.71-.48,1.18,0,.47.16.86.48,1.18.32.32.71.48,1.18.48Zm0,25.07c-2.7,0-5.23-.51-7.61-1.54-2.37-1.02-4.44-2.41-6.19-4.17-1.76-1.75-3.15-3.82-4.17-6.19-1.02-2.37-1.54-4.91-1.54-7.6s.51-5.23,1.54-7.61c1.02-2.37,2.41-4.44,4.17-6.19,1.75-1.76,3.82-3.15,6.19-4.17,2.37-1.02,4.91-1.54,7.6-1.54s5.23.51,7.61,1.54,4.44,2.41,6.19,4.17,3.15,3.82,4.17,6.19c1.02,2.37,1.54,4.91,1.54,7.6s-.51,5.23-1.54,7.61c-1.02,2.37-2.41,4.44-4.17,6.19-1.75,1.76-3.82,3.15-6.19,4.17-2.37,1.02-4.91,1.54-7.6,1.54Zm0-3.08c4.58,0,8.47-1.59,11.65-4.77,3.18-3.18,4.77-7.06,4.77-11.65s-1.59-8.47-4.77-11.65-7.06-4.77-11.65-4.77-8.47,1.59-11.65,4.77-4.77,7.06-4.77,11.65,1.59,8.47,4.77,11.65,7.06,4.77,11.65,4.77Z"/></svg>