<svg width="39" height="39" viewBox="0 0 39 39" fill="none" xmlns="http://www.w3.org/2000/svg">
<path d="M36.6096 39L22.3617 24.7518C21.2275 25.6883 19.9231 26.4212 18.4485 26.9505C16.974 27.4798 15.4487 27.7444 13.8724 27.7444C9.99518 27.7444 6.71381 26.4021 4.02828 23.7174C1.34276 21.0326 0 17.7521 0 13.8756C0 9.99958 1.34238 6.71787 4.02715 4.03049C6.71191 1.3435 9.99254 0 13.869 0C17.7451 0 21.0269 1.34274 23.7143 4.02822C26.4013 6.71371 27.7449 9.99504 27.7449 13.8722C27.7449 15.4923 27.473 17.0396 26.9293 18.5141C26.3853 19.9886 25.6595 21.271 24.7521 22.3614L39 36.609L36.6096 39ZM13.8724 24.3423C16.7954 24.3423 19.2711 23.3279 21.2995 21.2992C23.3283 19.2708 24.3427 16.7951 24.3427 13.8722C24.3427 10.9493 23.3283 8.47366 21.2995 6.44527C19.2711 4.41651 16.7954 3.40213 13.8724 3.40213C10.9495 3.40213 8.47378 4.41651 6.44537 6.44527C4.41657 8.47366 3.40218 10.9493 3.40218 13.8722C3.40218 16.7951 4.41657 19.2708 6.44537 21.2992C8.47378 23.3279 10.9495 24.3423 13.8724 24.3423Z" fill="black"/>
</svg>
