<svg width="48" height="48" viewBox="0 0 48 48" fill="none" xmlns="http://www.w3.org/2000/svg">
<path d="M24 41C21.641 41 19.4308 40.5538 17.3695 39.6615C15.3078 38.7692 13.5103 37.5563 11.977 36.023C10.4437 34.4897 9.23083 32.6922 8.3385 30.6305C7.44617 28.5692 7 26.359 7 24C7 21.641 7.44617 19.4308 8.3385 17.3695C9.23083 15.3078 10.4437 13.5103 11.977 11.977C13.5103 10.4437 15.3078 9.23083 17.3695 8.3385C19.4308 7.44617 21.641 7 24 7V10C20.1 10 16.7917 11.3583 14.075 14.075C11.3583 16.7917 10 20.1 10 24C10 27.9 11.3583 31.2083 14.075 33.925C16.7917 36.6417 20.1 38 24 38V41ZM32 33.2885L29.8925 31.15L35.5615 25.5H18.5V22.5H35.5425L29.8925 16.8L32 14.7115L41.2885 24L32 33.2885Z" fill="#1F1F1F"/>
</svg>
