<svg width="24" height="24" viewBox="0 0 24 24" fill="none" xmlns="http://www.w3.org/2000/svg">
<path d="M15.3653 21.173C14.8946 21.173 14.4917 21.0054 14.1565 20.6702C13.8214 20.3351 13.6538 19.9322 13.6538 19.4615C13.6538 18.9908 13.8214 18.5879 14.1565 18.2527C14.4917 17.9176 14.8946 17.75 15.3653 17.75C15.836 17.75 16.2389 17.9176 16.574 18.2527C16.9092 18.5879 17.0768 18.9908 17.0768 19.4615C17.0768 19.9322 16.9092 20.3351 16.574 20.6702C16.2389 21.0054 15.836 21.173 15.3653 21.173ZM6.48079 21.173C6.01412 21.173 5.6122 21.0054 5.27504 20.6702C4.93787 20.3351 4.76929 19.9322 4.76929 19.4615C4.76929 18.9908 4.93787 18.5879 5.27504 18.2527C5.6122 17.9176 6.01412 17.75 6.48079 17.75C6.96029 17.75 7.36545 17.9176 7.69629 18.2527C8.02695 18.5879 8.19229 18.9908 8.19229 19.4615C8.19229 19.9322 8.02695 20.3351 7.69629 20.6702C7.36545 21.0054 6.96029 21.173 6.48079 21.173ZM9.07104 15.25H14.2693C14.359 15.25 14.4326 15.2212 14.4903 15.1635C14.5481 15.1058 14.577 15.0321 14.577 14.9423V8.8L9.07104 15.25ZM7.42504 16.75C7.1017 16.75 6.8747 16.6064 6.74404 16.3193C6.61337 16.0321 6.65445 15.7635 6.86729 15.5135L15.9693 4.8385C16.2833 4.47433 16.6253 4.20192 16.9953 4.02125C17.3651 3.84042 17.7725 3.75 18.2173 3.75C18.9776 3.75 19.6203 4.0125 20.1453 4.5375C20.6701 5.0625 20.9325 5.70633 20.9325 6.469V7H19.4328V6.4655C19.4328 6.12033 19.3165 5.8315 19.0838 5.599C18.8513 5.36633 18.5625 5.25 18.2173 5.25C17.9988 5.25 17.805 5.29133 17.636 5.374C17.4672 5.45667 17.3116 5.5775 17.1693 5.7365L16.0768 6.99625V14.9392C16.0768 15.4399 15.8999 15.8669 15.546 16.2203C15.1922 16.5734 14.7668 16.75 14.2698 16.75H7.42504ZM9.91729 9.62875L5.53279 5.24425C6.24945 4.74808 7.00137 4.375 7.78854 4.125C8.5757 3.875 9.39945 3.75 10.2598 3.75C10.9328 3.75 11.5917 3.82567 12.2365 3.977C12.8814 4.12833 13.5211 4.35842 14.1558 4.66725L9.91729 9.62875ZM9.82129 7.41925L11.552 5.39625C11.3417 5.34742 11.1263 5.31083 10.9058 5.2865C10.6853 5.26217 10.47 5.25 10.2598 5.25C9.87512 5.25 9.50137 5.283 9.13854 5.349C8.7757 5.415 8.41354 5.51217 8.05204 5.6405L9.82129 7.41925Z" fill="#212121"/>
</svg>
