<svg width="469" height="96" viewBox="0 0 469 96" fill="none" xmlns="http://www.w3.org/2000/svg">
<g clip-path="url(#clip0_15_73)">
<path d="M33.95 20.38C33.83 18.74 33.73 17.35 33.6 15.53C37.51 15.04 41.44 14.51 45.38 14.13C45.79 14.09 46.63 14.89 46.69 15.38C47.04 18.45 47.4 21.54 47.41 24.62C47.41 26.51 47.55 28.08 48.47 29.91C49.93 32.82 50.98 36.11 51.4 39.35C52.97 51.59 46.67 62.8 35.13 67.32C28.47 69.93 21.58 69.42 14.63 66.62C10.27 64.86 7.47001 62.2 5.23001 58.45C1.91001 52.89 -0.679994 47.17 0.160006 40.41C1.45001 30.05 9.36001 22.23 19.61 20.28C24.38 19.37 28.89 19.38 33.96 20.38H33.95ZM14.53 36.95C11.85 44.1 14.73 50.91 21.19 53.45C27.27 55.84 33.75 52.11 34.28 45.69C26.26 46.42 18.2 47.05 14.53 36.96V36.95ZM32.77 30.48C31.56 28.63 29.85 28.48 28.15 29.24C27.45 29.55 26.66 30.66 26.71 31.35C26.75 32 27.74 32.91 28.49 33.14C30.65 33.82 31.92 32.56 32.77 30.48Z" fill="#FE5245"/>
<path d="M103.67 22.11C103.16 18.14 102.77 14.77 102.3 11.41C101.53 5.9 101.53 5.97 106.81 4.61C110.2 3.74 113.47 4.19 116.71 5.13C117.27 5.29 117.84 6.15 118.01 6.8C120.86 17.53 121.09 28.44 119.45 39.33C118.69 44.41 117.26 49.43 115.73 54.36C113.5 61.54 107.89 65.36 100.41 66.01C92.6 66.69 86.3 63.31 80.28 59.17C74.33 55.09 73.4 48.87 74.24 42.32C74.99 36.46 76.57 30.78 81.59 26.99C84.02 25.15 86.69 23.3 89.55 22.42C93.9 21.08 98.48 20.21 103.66 22.1L103.67 22.11ZM97.48 37.06C93.26 37.05 90.33 39.9 90.33 44.01C90.33 47.01 93.56 49.72 97.12 49.73C100.54 49.73 102.92 46.98 102.96 42.97C103 39.66 100.6 37.07 97.48 37.06Z" fill="#FDC421"/>
<path d="M161.37 48.16C163.44 50.89 169.32 51.24 179.41 50.12C179.67 52.85 179.99 55.58 180.16 58.32C180.44 62.89 180.22 63.27 175.74 64.35C168.27 66.15 160.81 65.59 154.11 61.99C144.73 56.96 140.51 47.86 143.02 37.14C145.3 27.42 150.3 21 160.9 18.47C164.99 17.49 168.96 17.31 172.82 18.95C181.74 22.73 184.22 34.89 177.57 42.24C174.1 46.08 169.83 48.31 164.52 48.16C163.51 48.13 162.51 48.16 161.36 48.16H161.37ZM157.88 36.68C157.98 36.96 158.08 37.24 158.18 37.52C160.42 36.91 162.74 36.49 164.87 35.61C165.8 35.23 167.11 33.57 166.9 33.06C166.3 31.63 164.84 30.98 163.13 31.6C160.6 32.52 158.93 34.29 157.88 36.68Z" fill="#FE5245"/>
<path d="M55.99 37.07C55.99 30.44 56.05 23.81 55.95 17.19C55.91 14.9 55.53 12.6 55.15 10.34C54.88 8.77 55.15 7.9 56.93 7.79C60.67 7.54 64.4 7.21 68.13 6.89C69.34 6.79 69.79 7.28 69.88 8.52C71.12 26.06 70.89 43.61 70.18 61.15C70.15 61.8 69.3 62.91 68.75 62.96C65.58 63.29 62.39 63.3 59.21 63.54C56.93 63.72 56.05 62.73 56.06 60.53C56.07 53.03 56.02 45.53 55.99 38.03C55.99 37.71 55.99 37.39 55.99 37.07Z" fill="#FE5245"/>
<path d="M136.87 23.14C139.35 36.27 139.51 49.25 139.44 62.76C135.27 63.01 131.32 63.31 127.37 63.4C126.91 63.41 126.06 62.25 126.01 61.59C125.48 54.51 124.88 47.43 124.7 40.34C124.58 35.48 125.21 30.61 125.31 25.74C125.36 23.4 126.42 22.59 128.56 22.7C131.34 22.85 134.11 22.99 136.87 23.14Z" fill="#FE5245"/>
<path d="M137.47 13.03C137.47 16.8 135.45 18.96 131.92 18.95C127.92 18.94 124.89 16.08 124.92 12.34C124.95 8.89999 127.63 5.34999 130.21 5.32999C134.07 5.30999 137.46 8.90999 137.47 13.03Z" fill="#FE5245"/>
<path d="M248.89 62.06C248.37 56.7 247.63 51.87 247.48 47.03C247.23 38.97 247.44 30.89 247.29 22.82C247.24 20.3 248.35 19.22 250.64 18.9C254.19 18.4 257.74 17.88 261.57 17.32C261.87 18.48 262.16 19.66 262.48 20.88C271.04 15.14 276.09 17.3 280.22 23.85C280.7 23.28 281.18 22.77 281.6 22.21C286.57 15.66 294.72 14.66 300.79 17.53C305.9 19.95 309.7 24.56 311.61 30.38C314.39 38.82 313.9 47.4 313.25 56.01C312.89 60.72 312.79 60.7 308.12 61.49C305.06 62.01 302.01 62.59 298.94 63.09C298.26 63.2 297.55 63.11 296.62 63.11C296.81 61.13 297.05 59.34 297.14 57.54C297.35 52.92 297.6 48.3 297.6 43.68C297.6 41.55 297.15 39.38 295.06 38.04C293.16 36.82 291.38 36.99 290.01 38.78C287.68 41.83 287.45 45.37 287.77 49.04C288.08 52.62 288.26 56.21 288.54 59.79C288.7 61.81 287.85 62.38 285.86 62.3C281.72 62.14 277.57 62.25 273.1 62.25C272.95 60.76 272.78 59.38 272.68 57.99C272.33 52.91 272.15 47.8 271.59 42.74C271.36 40.66 270.64 38.49 269.57 36.7C269.01 35.75 267.15 34.99 266.03 35.16C265.22 35.28 264.13 37.08 264.11 38.14C264.02 43.16 264.28 48.19 264.35 53.22C264.38 55.21 264.29 57.21 264.1 59.19C264.06 59.63 263.42 60.31 262.99 60.36C258.51 60.96 254.01 61.46 248.89 62.06Z" fill="#FE5245"/>
<path d="M466.48 81.43C462.99 80.55 459.85 79.75 456.38 78.88C455.94 80.39 455.5 81.88 455.08 83.38C452.24 93.56 448.63 96.42 438.08 95.62C433.8 95.29 429.58 93.78 425.4 92.54C423.25 91.91 421.67 90.41 421.62 87.84C421.62 87.3 421.36 86.75 421.13 86.24C418.78 80.99 420.15 76.11 422.61 71.35C422.92 70.75 423.46 70.15 424.04 69.83C429.19 66.96 434.34 64.07 440.53 64.15C441.55 64.16 442.57 63.85 443.86 63.64C443.77 62.4 443.68 61.23 443.62 60.36C439.86 60.67 436.17 61.33 432.5 61.19C426.62 60.96 421.26 58.92 418.01 53.7C416.37 51.07 415.1 47.91 414.71 44.86C413.86 38.23 413.71 31.51 413.23 24.82C413.13 23.4 413.86 22.96 415.07 22.96C418.9 22.96 422.74 22.91 426.57 23.03C427.08 23.05 427.93 23.89 428.01 24.43C428.31 26.55 428.36 28.71 428.5 30.86C428.72 34.2 428.71 37.57 429.2 40.88C429.85 45.31 432.57 47.65 436.12 47.36C439.75 47.06 442.79 43.9 442.8 39.85C442.81 35.71 442.53 31.56 442.11 27.44C441.8 24.33 441.83 24.05 445 23.81C447.39 23.63 449.78 23.52 452.17 23.39C455.54 23.2 455.98 23.42 456.25 26.76C456.75 32.8 457.2 38.85 457.37 44.91C457.54 50.73 457.45 56.57 457.24 62.4C457.17 64.49 458.02 65.07 459.8 65.58C462.46 66.34 465.04 67.42 467.59 68.52C468.14 68.76 468.82 69.74 468.73 70.26C468.1 73.92 467.28 77.55 466.48 81.44V81.43ZM444.66 76.17C441.09 75.44 438 76.33 435.26 78.24C434.59 78.7 434.07 80.03 434.21 80.84C434.39 81.88 435.1 83.36 435.93 83.65C438.33 84.48 440.67 83.78 442.53 82.02C444.2 80.45 445.22 78.56 444.66 76.17Z" fill="#FE5245"/>
<path d="M350.36 19.21C350.23 17.54 350.13 16.22 350.01 14.55C352.16 14.18 354.33 13.79 356.5 13.46C357.37 13.33 358.25 13.36 359.13 13.27C363.08 12.89 363.49 13.24 363.82 17.37C363.88 18.09 363.98 18.81 363.93 19.52C363.61 23.79 364.19 27.61 366.37 31.64C368.71 35.96 368.52 41.29 367.69 46.2C366.13 55.42 360.87 62.3 352.39 65.93C345.4 68.92 338.21 68.27 330.8 65.46C324.8 63.18 322.35 58.56 319.67 53.78C316.95 48.94 315.62 43.69 316.74 38.11C318.3 30.31 325.03 20.43 335.77 19.12C340.59 18.53 345.22 18.27 350.37 19.21H350.36ZM350.87 44.57C342.54 45.24 334.43 45.94 330.85 35.45C329.49 40.72 329.49 45.17 332.82 49.02C335.89 52.57 339.77 53.83 344.4 52.55C348.34 51.46 350.3 48.8 350.88 44.58L350.87 44.57ZM349.23 29.34C347.94 27.58 346.28 27.26 344.55 28.14C343.85 28.49 342.95 29.68 343.1 30.22C343.32 30.99 344.32 31.85 345.15 32.09C347.28 32.71 348.32 31.21 349.22 29.35L349.23 29.34Z" fill="#FDC421"/>
<path d="M393.02 67.14C392.56 44.78 392.1 22.72 391.64 0.0100069C396.19 0.0100069 400.69 -0.029993 405.18 0.070007C405.61 0.070007 406.35 0.910007 406.4 1.42001C407.09 8.72001 407.93 16.02 408.24 23.34C408.75 35.21 408.97 47.09 409.16 58.96C409.26 65.29 409.12 65.21 402.86 65.58C400.57 65.71 398.32 66.34 396.05 66.72C395.22 66.86 394.38 66.95 393.02 67.13V67.14Z" fill="#FE5245"/>
<path d="M372.21 2.74001H387.28C389.8 23.36 387.26 43.62 388.9 63.94H373.31C372.94 43.28 372.57 22.86 372.21 2.74001Z" fill="#FE5245"/>
<path d="M229.51 20.78C225.28 17.36 219.61 15.96 214.3 15.34C210.46 14.9 206.32 15.17 203.03 17.16C196.35 20 192.02 27.71 191.76 34.93C191.42 44.32 197.79 52.65 206.53 55.67C215.64 58.82 226.2 55.08 231.84 47.41C237.75 39.38 237.61 27.32 229.5 20.77L229.51 20.78ZM230.41 42.24C230.48 42.16 230.55 42.08 230.61 41.99C230.45 42.33 230.28 42.68 230.1 43.02C230.2 42.78 230.3 42.52 230.41 42.24Z" fill="#FDC421"/>
<path d="M206.58 32.67C204.68 30.44 204.53 28.26 206.16 26.64C207.58 25.23 209.53 25.35 211.38 26.97C212.48 25.5 213.89 24.71 215.66 25.6C217.32 26.42 217.64 27.95 217.27 29.72C217.75 29.81 218.19 29.89 218.66 29.98C218.88 29.38 219.09 28.81 219.27 28.23C219.31 28.11 219.23 27.95 219.18 27.82C218.96 27.26 219.07 26.71 219.52 26.35C219.96 26 220.46 25.97 220.93 26.25C221.41 26.54 221.58 27 221.48 27.55C221.37 28.11 220.96 28.49 220.34 28.5C220 28.5 219.87 28.65 219.79 28.92C219.73 29.13 219.65 29.35 219.59 29.56C219.54 29.74 219.5 29.92 219.45 30.13C220.17 30.42 220.87 30.71 221.59 30.99C221.83 30.27 222.07 29.56 222.28 28.84C222.31 28.72 222.24 28.56 222.19 28.43C221.97 27.87 222.1 27.3 222.54 26.96C222.98 26.62 223.46 26.58 223.95 26.86C224.41 27.13 224.63 27.67 224.49 28.21C224.36 28.72 223.92 29.11 223.35 29.11C223.01 29.11 222.89 29.26 222.81 29.54C222.79 29.61 222.76 29.68 222.73 29.75C222.39 30.7433 222.617 31.5633 223.41 32.21C227.75 35.75 227.27 41.89 222.38 44.8C218.54 47.09 214.46 47.19 210.31 45.77C208.22 45.05 206.42 43.86 205.19 41.98C204.76 41.32 204.52 40.54 204.16 39.83C204.06 39.63 203.87 39.4 203.67 39.32C203.1 39.09 202.49 38.96 201.93 38.73C201.69 38.63 201.52 38.36 201.32 38.17C201.52 37.96 201.69 37.66 201.93 37.56C202.49 37.32 203.1 37.19 203.68 36.99C203.85 36.93 204.06 36.78 204.1 36.63C204.51 35.13 205.31 33.88 206.44 32.82C206.49 32.77 206.53 32.71 206.57 32.65L206.58 32.67ZM219.23 44.65C221.78 44.51 223.84 43.38 225.02 40.96C226.19 38.55 225.81 36.24 224.24 34.12C223.38 32.96 222.12 32.82 220.98 33.73C220.66 33.99 220.45 33.94 220.16 33.69C217.98 31.85 214.96 32.33 213.54 34.77C212.26 36.95 212.18 39.22 213.47 41.41C214.72 43.54 216.68 44.55 219.23 44.64V44.65ZM219.22 45.45C219.06 45.4 219.05 45.39 219.03 45.39C218.9 45.39 218.77 45.39 218.64 45.37C215.96 45.11 213.89 43.87 212.65 41.46C211.37 38.99 211.54 36.52 213.05 34.19C214.14 32.5 215.75 31.73 217.76 31.85C218.83 31.92 219.76 32.39 220.53 33C221.12 32.76 221.66 32.54 222.2 32.32C222.16 32.28 222.13 32.23 222.09 32.2C222 32.13 221.91 32.07 221.81 32.01C219.1 30.48 216.2 30.1 213.17 30.57C212.97 30.6 212.76 30.74 212.62 30.89C209 34.86 209.02 41.48 212.65 45.48C212.77 45.61 212.94 45.74 213.1 45.76C215.11 46.08 217.1 46 219.22 45.45ZM211.41 45.45C208.37 40.55 208.36 35.77 211.55 30.93C211.35 30.98 211.22 31 211.11 31.04C210.56 31.26 209.99 31.46 209.46 31.72C209.23 31.83 208.99 32.03 208.86 32.26C206.57 36.21 206.55 40.16 208.86 44.11C208.95 44.26 209.07 44.44 209.23 44.51C209.95 44.84 210.68 45.14 211.41 45.45ZM210.23 30.53C211.78 30.16 211.97 29.75 211.28 28.25C211.21 28.1 211.13 27.95 211.04 27.81C210.02 26.25 207.95 25.95 206.69 27.17C205.37 28.45 205.52 30.89 207.01 31.98C207.12 32.06 207.34 32.1 207.44 32.05C208.1 31.67 208.74 31.26 209.43 30.83C209.36 30.62 209.31 30.38 209.19 30.18C208.82 29.54 208.4 28.92 208.04 28.28C207.95 28.12 207.99 27.89 207.97 27.69C208.17 27.72 208.39 27.7 208.55 27.79C208.7 27.87 208.82 28.05 208.91 28.2C209.34 28.95 209.76 29.72 210.22 30.53H210.23ZM207.63 43.47C206.02 39.89 206.03 36.43 207.62 32.91C203.78 35.68 203.76 40.55 207.63 43.47ZM212.5 30.03C212.67 29.81 212.82 29.65 212.93 29.47C213.35 28.73 213.74 27.97 214.19 27.25C214.29 27.1 214.69 26.96 214.81 27.04C215.14 27.26 214.88 27.49 214.72 27.73C214.32 28.34 213.95 28.98 213.53 29.67C214.54 29.67 215.39 29.67 216.24 29.66C216.34 29.66 216.49 29.52 216.54 29.41C217.02 28.26 216.36 26.67 215.22 26.2C214 25.7 212.47 26.33 211.99 27.53C211.94 27.64 211.92 27.79 211.95 27.9C212.11 28.56 212.29 29.22 212.5 30.03ZM224 27.96C223.69 27.72 223.5 27.47 223.35 27.49C223.16 27.52 222.91 27.75 222.86 27.93C222.83 28.05 223.11 28.37 223.27 28.38C223.46 28.39 223.66 28.17 223.99 27.96H224ZM220.35 27.99C220.55 27.66 220.77 27.45 220.75 27.27C220.74 27.11 220.4 26.84 220.29 26.87C220.1 26.93 219.88 27.18 219.85 27.37C219.83 27.51 220.1 27.7 220.35 27.99ZM203.95 37.73C203.5 37.87 203.09 37.99 202.69 38.12C202.69 38.16 202.69 38.2 202.69 38.24C203.09 38.37 203.49 38.49 203.94 38.64V37.74L203.95 37.73Z" fill="#EF5B50"/>
</g>
<defs>
<clipPath id="clip0_15_73">
<rect width="468.75" height="95.75" fill="white"/>
</clipPath>
</defs>
</svg>
