<svg width="291" height="59" viewBox="0 0 291 59" fill="none" xmlns="http://www.w3.org/2000/svg">
<g clip-path="url(#clip0_77_335)">
<path d="M21.0762 12.5579C21.0017 11.5473 20.9396 10.6908 20.8589 9.56936C23.2862 9.26743 25.726 8.94085 28.1719 8.7067C28.4265 8.68205 28.9479 9.175 28.9852 9.47694C29.2025 11.3686 29.4259 13.2727 29.4321 15.1705C29.4321 16.3351 29.5191 17.3025 30.0902 18.4301C30.9966 20.2233 31.6484 22.2505 31.9091 24.247C32.8838 31.7891 28.9728 38.6966 21.8087 41.4817C17.6742 43.09 13.3969 42.7757 9.08232 41.0504C6.37564 39.9659 4.6374 38.3269 3.2468 36.0162C1.18575 32.5901 -0.422123 29.0656 0.0993488 24.9001C0.900181 18.5164 5.81071 13.6978 12.1739 12.4963C15.1351 11.9355 17.9349 11.9417 21.0824 12.5579H21.0762ZM9.02024 22.7681C7.3565 27.1739 9.14441 31.3701 13.1548 32.9352C16.9292 34.4079 20.952 32.1095 21.281 28.1536C16.3022 28.6034 11.2986 28.9916 9.02024 22.7743V22.7681ZM20.3436 18.7814C19.5925 17.6414 18.5309 17.549 17.4755 18.0173C17.041 18.2083 16.5505 18.8923 16.5816 19.3175C16.6064 19.718 17.221 20.2787 17.6866 20.4204C19.0275 20.8394 19.816 20.063 20.3436 18.7814Z" fill="white"/>
<path d="M64.3584 13.6239C64.0418 11.1777 63.7997 9.10111 63.5079 7.03072C63.0299 3.63552 63.0299 3.67866 66.3077 2.84064C68.4122 2.30456 70.4422 2.58184 72.4536 3.16106C72.8013 3.25965 73.1551 3.78957 73.2606 4.19009C75.0299 10.8018 75.1727 17.5244 74.1546 24.2347C73.6828 27.3649 72.795 30.4582 71.8452 33.496C70.4608 37.9202 66.9781 40.2741 62.3346 40.6746C57.4861 41.0936 53.5751 39.0109 49.8379 36.4599C46.1441 33.9458 45.5668 30.1131 46.0882 26.0771C46.5538 22.4662 47.5347 18.9663 50.6511 16.6309C52.1596 15.4971 53.8172 14.3572 55.5927 13.8149C58.2932 12.9893 61.1364 12.4532 64.3522 13.6178L64.3584 13.6239ZM60.5156 22.8359C57.8958 22.8298 56.0769 24.5859 56.0769 27.1184C56.0769 28.967 58.0821 30.6369 60.2921 30.643C62.4153 30.643 63.8928 28.9485 63.9176 26.4776C63.9424 24.438 62.4525 22.8421 60.5156 22.8359Z" fill="#FDC421"/>
<path d="M100.179 29.6756C101.464 31.3578 105.114 31.5735 111.378 30.8834C111.539 32.5656 111.738 34.2478 111.843 35.9361C112.017 38.7521 111.881 38.9862 109.099 39.6517C104.462 40.7609 99.8309 40.4158 95.6715 38.1975C89.8484 35.0981 87.2287 29.4908 88.7869 22.8853C90.2023 16.8959 93.3063 12.94 99.8868 11.381C102.426 10.7772 104.89 10.6663 107.287 11.6768C112.824 14.006 114.364 21.4988 110.236 26.0278C108.081 28.394 105.431 29.7681 102.134 29.6756C101.507 29.6572 100.886 29.6756 100.172 29.6756H100.179ZM98.012 22.6018C98.074 22.7743 98.1361 22.9469 98.1982 23.1194C99.5888 22.7435 101.029 22.4847 102.351 21.9425C102.929 21.7083 103.742 20.6855 103.612 20.3712C103.239 19.4901 102.333 19.0895 101.271 19.4716C99.7005 20.0385 98.6638 21.1291 98.012 22.6018Z" fill="white"/>
<path d="M34.7585 22.8421C34.7585 18.7568 34.7958 14.6715 34.7337 10.5923C34.7089 9.18123 34.473 7.764 34.2371 6.37142C34.0695 5.404 34.2371 4.86792 35.3421 4.80014C37.6639 4.64609 39.9795 4.44275 42.295 4.24557C43.0462 4.18395 43.3256 4.48588 43.3814 5.24995C44.1512 16.0579 44.0085 26.872 43.5677 37.6799C43.5491 38.0805 43.0214 38.7644 42.6799 38.7952C40.712 38.9986 38.7317 39.0047 36.7575 39.1526C35.3421 39.2635 34.7958 38.6535 34.802 37.2979C34.8082 32.6765 34.7772 28.0551 34.7585 23.4337C34.7585 23.2365 34.7585 23.0393 34.7585 22.8421Z" fill="white"/>
<path d="M84.9688 14.2586C86.5084 22.3491 86.6077 30.3472 86.5643 38.6719C83.9756 38.826 81.5234 39.0108 79.0712 39.0663C78.7857 39.0725 78.258 38.3577 78.2269 37.951C77.8979 33.5884 77.5254 29.2258 77.4137 24.857C77.3392 21.8623 77.7303 18.8615 77.7924 15.8607C77.8234 14.4188 78.4815 13.9197 79.81 13.9874C81.5358 14.0799 83.2554 14.1661 84.9688 14.2586Z" fill="white"/>
<path d="M85.3415 8.02888C85.3415 10.3519 84.0875 11.6829 81.896 11.6767C79.4128 11.6705 77.5318 9.90825 77.5504 7.60371C77.5691 5.48402 79.2328 3.29655 80.8345 3.28423C83.2308 3.27191 85.3353 5.49018 85.3415 8.02888Z" fill="white"/>
<path d="M154.511 38.2407C154.188 34.9379 153.729 31.9617 153.636 28.9794C153.48 24.0129 153.611 19.0341 153.518 14.0615C153.487 12.5087 154.176 11.8432 155.597 11.646C157.801 11.3379 160.005 11.0175 162.383 10.6724C162.569 11.3872 162.749 12.1143 162.948 12.8661C168.262 9.32914 171.397 10.6601 173.961 14.6961C174.259 14.3449 174.557 14.0307 174.817 13.6856C177.903 9.64955 182.962 9.03337 186.73 10.8018C189.903 12.293 192.262 15.1336 193.447 18.7198C195.173 23.9205 194.869 29.2074 194.466 34.5127C194.242 37.415 194.18 37.4027 191.281 37.8894C189.381 38.2099 187.488 38.5673 185.582 38.8753C185.16 38.9431 184.719 38.8877 184.142 38.8877C184.26 37.6676 184.409 36.5646 184.465 35.4555C184.595 32.6087 184.75 29.7619 184.75 26.9151C184.75 25.6027 184.471 24.2655 183.173 23.4398C181.994 22.6881 180.889 22.7928 180.038 23.8958C178.592 25.7752 178.449 27.9565 178.648 30.2179C178.84 32.4239 178.952 34.636 179.126 36.8419C179.225 38.0866 178.697 38.4379 177.462 38.3886C174.892 38.29 172.315 38.3577 169.54 38.3577C169.447 37.4396 169.342 36.5893 169.28 35.7328C169.062 32.6026 168.951 29.4538 168.603 26.3359C168.46 25.0543 168.013 23.7171 167.349 22.6142C167.001 22.0288 165.847 21.5605 165.151 21.6652C164.649 21.7392 163.972 22.8483 163.959 23.5015C163.904 26.5947 164.065 29.6941 164.108 32.7936C164.127 34.0198 164.071 35.2522 163.953 36.4722C163.928 36.7433 163.531 37.1623 163.264 37.1932C160.483 37.5629 157.689 37.871 154.511 38.2407Z" fill="white"/>
<path d="M289.591 50.1762C287.424 49.634 285.475 49.141 283.321 48.605C283.048 49.5354 282.774 50.4535 282.514 51.3778C280.751 57.6506 278.51 59.4129 271.96 58.9199C269.303 58.7166 266.683 57.7862 264.088 57.0221C262.754 56.6339 261.773 55.7096 261.742 54.126C261.742 53.7933 261.58 53.4544 261.438 53.1401C259.979 49.9051 260.829 46.8981 262.356 43.9651C262.549 43.5953 262.884 43.2256 263.244 43.0285C266.441 41.26 269.638 39.4792 273.481 39.5285C274.114 39.5347 274.747 39.3436 275.548 39.2143C275.492 38.4502 275.437 37.7292 275.399 37.1932C273.065 37.3842 270.774 37.7909 268.496 37.7046C264.846 37.5629 261.518 36.3058 259.501 33.0893C258.483 31.4688 257.694 29.5216 257.452 27.6422C256.924 23.5569 256.831 19.4161 256.533 15.2938C256.471 14.4188 256.924 14.1477 257.676 14.1477C260.053 14.1477 262.437 14.1169 264.815 14.1909C265.131 14.2032 265.659 14.7208 265.709 15.0535C265.895 16.3598 265.926 17.6908 266.013 19.0156C266.149 21.0737 266.143 23.1502 266.447 25.1898C266.851 27.9195 268.54 29.3614 270.743 29.1827C272.997 28.9979 274.884 27.0507 274.89 24.5551C274.896 22.0041 274.723 19.4469 274.462 16.9082C274.269 14.9919 274.288 14.8194 276.256 14.6715C277.74 14.5606 279.223 14.4928 280.707 14.4127C282.799 14.2956 283.072 14.4312 283.24 16.4892C283.55 20.211 283.83 23.939 283.935 27.673C284.041 31.2593 283.985 34.8578 283.855 38.4502C283.811 39.738 284.339 40.0954 285.444 40.4097C287.095 40.878 288.697 41.5434 290.28 42.2212C290.621 42.3691 291.044 42.973 290.988 43.2934C290.597 45.5487 290.087 47.7854 289.591 50.1824V50.1762ZM276.045 46.9351C273.829 46.4853 271.91 47.0337 270.209 48.2106C269.794 48.494 269.471 49.3136 269.558 49.8127C269.669 50.4535 270.11 51.3655 270.625 51.5442C272.115 52.0556 273.568 51.6243 274.723 50.5398C275.759 49.5724 276.393 48.4078 276.045 46.9351Z" fill="white"/>
<path d="M217.503 11.837C217.423 10.808 217.361 9.99462 217.286 8.96558C218.621 8.73759 219.968 8.49728 221.315 8.29394C221.855 8.21383 222.402 8.23232 222.948 8.17686C225.4 7.94271 225.655 8.15838 225.859 10.7032C225.897 11.1469 225.959 11.5905 225.928 12.028C225.729 14.6592 226.089 17.013 227.442 19.4962C228.895 22.1582 228.777 25.4424 228.262 28.4679C227.293 34.1492 224.028 38.3886 218.764 40.6253C214.424 42.4677 209.961 42.0672 205.361 40.3357C201.636 38.9308 200.115 36.084 198.451 33.1386C196.763 30.1563 195.937 26.9213 196.632 23.483C197.601 18.6767 201.779 12.5888 208.446 11.7816C211.438 11.418 214.313 11.2578 217.51 11.837H217.503ZM217.82 27.4635C212.649 27.8764 207.614 28.3077 205.392 21.8439C204.547 25.0912 204.547 27.8333 206.615 30.2056C208.52 32.393 210.929 33.1694 213.803 32.3807C216.249 31.7091 217.466 30.07 217.826 27.4697L217.82 27.4635ZM216.802 18.079C216.001 16.9945 214.971 16.7973 213.897 17.3396C213.462 17.5552 212.903 18.2885 212.996 18.6212C213.133 19.0957 213.754 19.6256 214.269 19.7735C215.591 20.1556 216.237 19.2313 216.796 18.0852L216.802 18.079Z" fill="#FDC421"/>
<path d="M243.987 41.3709C243.701 27.5929 243.416 13.9998 243.13 0.00621142C245.955 0.00621142 248.748 -0.0184361 251.536 0.0431827C251.803 0.0431827 252.262 0.560781 252.293 0.875036C252.721 5.37321 253.243 9.87138 253.435 14.3819C253.752 21.696 253.889 29.0163 254.007 36.3305C254.069 40.231 253.982 40.1817 250.095 40.4097C248.674 40.4898 247.277 40.878 245.868 41.1121C245.353 41.1984 244.831 41.2538 243.987 41.3647V41.3709Z" fill="white"/>
<path d="M231.068 1.68835H240.423C241.988 14.3941 240.411 26.8781 241.429 39.3991H231.751C231.521 26.6686 231.291 14.0861 231.068 1.68835Z" fill="white"/>
<path d="M142.48 12.8043C139.854 10.697 136.334 9.83431 133.038 9.45227C130.654 9.18115 128.084 9.34752 126.041 10.5737C121.894 12.3237 119.206 17.0745 119.045 21.5234C118.834 27.3094 122.788 32.4422 128.214 34.3031C133.869 36.2441 140.425 33.9396 143.926 29.2134C147.595 24.2654 147.508 16.8342 142.474 12.7982L142.48 12.8043ZM143.039 26.0277C143.082 25.9784 143.126 25.9291 143.163 25.8737C143.063 26.0832 142.958 26.2989 142.846 26.5084C142.908 26.3605 142.97 26.2003 143.039 26.0277Z" fill="#FDC421"/>
<path d="M128.245 20.1309C127.065 18.7568 126.972 17.4135 127.984 16.4153C128.866 15.5464 130.076 15.6204 131.225 16.6186C131.908 15.7128 132.783 15.226 133.882 15.7744C134.912 16.2797 135.111 17.2225 134.881 18.3131C135.179 18.3686 135.452 18.4179 135.744 18.4733C135.881 18.1036 136.011 17.7524 136.123 17.395C136.148 17.3211 136.098 17.2225 136.067 17.1424C135.93 16.7973 135.999 16.4584 136.278 16.2366C136.551 16.0209 136.862 16.0024 137.153 16.1749C137.451 16.3536 137.557 16.6371 137.495 16.976C137.427 17.3211 137.172 17.5552 136.787 17.5614C136.576 17.5614 136.495 17.6538 136.446 17.8202C136.408 17.9496 136.359 18.0851 136.322 18.2145C136.29 18.3254 136.266 18.4364 136.235 18.5658C136.682 18.7444 137.116 18.9231 137.563 19.0957C137.712 18.652 137.861 18.2145 137.991 17.7709C138.01 17.6969 137.967 17.5983 137.936 17.5182C137.799 17.1732 137.88 16.8219 138.153 16.6124C138.426 16.4029 138.724 16.3783 139.028 16.5508C139.314 16.7172 139.45 17.0499 139.363 17.3827C139.283 17.6969 139.01 17.9372 138.656 17.9372C138.445 17.9372 138.37 18.0297 138.32 18.2022C138.308 18.2453 138.289 18.2885 138.271 18.3316C138.06 18.9437 138.2 19.449 138.693 19.8474C141.387 22.0287 141.089 25.8121 138.054 27.6052C135.67 29.0163 133.137 29.0779 130.56 28.2029C129.263 27.7593 128.146 27.026 127.382 25.8676C127.115 25.4609 126.966 24.9803 126.743 24.5428C126.68 24.4195 126.563 24.2778 126.438 24.2285C126.085 24.0868 125.706 24.0067 125.358 23.865C125.209 23.8033 125.104 23.637 124.979 23.5199C125.104 23.3905 125.209 23.2056 125.358 23.144C125.706 22.9961 126.085 22.916 126.445 22.7928C126.55 22.7558 126.68 22.6634 126.705 22.571C126.96 21.6467 127.456 20.8765 128.158 20.2233C128.189 20.1925 128.214 20.1555 128.239 20.1185L128.245 20.1309ZM136.098 27.5128C137.681 27.4265 138.96 26.7302 139.692 25.2391C140.419 23.7541 140.183 22.3307 139.208 21.0243C138.674 20.3096 137.892 20.2233 137.184 20.784C136.986 20.9442 136.855 20.9134 136.675 20.7594C135.322 19.6256 133.447 19.9214 132.566 21.4249C131.771 22.7682 131.721 24.1669 132.522 25.5163C133.298 26.8288 134.515 27.4512 136.098 27.5066V27.5128ZM136.092 28.0057C135.992 27.9749 135.986 27.9688 135.974 27.9688C135.893 27.9688 135.812 27.9688 135.732 27.9565C134.068 27.7962 132.783 27.0322 132.013 25.5472C131.219 24.0252 131.324 22.5032 132.261 21.0675C132.938 20.0261 133.938 19.5517 135.185 19.6256C135.85 19.6687 136.427 19.9583 136.905 20.3342C137.271 20.1863 137.607 20.0508 137.942 19.9152C137.917 19.8906 137.898 19.8597 137.874 19.8413C137.818 19.7981 137.762 19.7612 137.7 19.7242C136.017 18.7814 134.217 18.5473 132.336 18.8369C132.212 18.8554 132.081 18.9416 131.995 19.0341C129.747 21.4803 129.76 25.5595 132.013 28.0242C132.088 28.1043 132.193 28.1844 132.293 28.1968C133.54 28.3939 134.776 28.3447 136.092 28.0057ZM131.243 28.0057C129.356 24.9864 129.35 22.0411 131.33 19.0587C131.206 19.0895 131.125 19.1018 131.057 19.1265C130.716 19.262 130.362 19.3853 130.033 19.5455C129.89 19.6133 129.741 19.7365 129.66 19.8782C128.239 22.3122 128.226 24.7461 129.66 27.1801C129.716 27.2725 129.791 27.3834 129.89 27.4265C130.337 27.6299 130.79 27.8147 131.243 28.0057ZM130.511 18.8122C131.473 18.5842 131.591 18.3316 131.163 17.4073C131.119 17.3149 131.07 17.2225 131.014 17.1362C130.38 16.1749 129.095 15.9901 128.313 16.7418C127.494 17.5306 127.587 19.0341 128.512 19.7057C128.58 19.755 128.717 19.7796 128.779 19.7488C129.189 19.5147 129.586 19.262 130.014 18.9971C129.971 18.8677 129.94 18.7198 129.865 18.5966C129.635 18.2022 129.375 17.8202 129.151 17.4258C129.095 17.3272 129.12 17.1855 129.108 17.0623C129.232 17.0807 129.369 17.0684 129.468 17.1239C129.561 17.1732 129.635 17.2841 129.691 17.3765C129.958 17.8386 130.219 18.3131 130.505 18.8122H130.511ZM128.897 26.7857C127.897 24.5797 127.903 22.4477 128.891 20.2788C126.507 21.9856 126.494 24.9864 128.897 26.7857ZM131.92 18.5041C132.026 18.3686 132.119 18.27 132.187 18.1591C132.448 17.7031 132.69 17.2348 132.969 16.7911C133.031 16.6987 133.28 16.6124 133.354 16.6617C133.559 16.7973 133.398 16.939 133.298 17.0869C133.05 17.4628 132.82 17.8571 132.559 18.2823C133.186 18.2823 133.714 18.2823 134.242 18.2761C134.304 18.2761 134.397 18.1899 134.428 18.1221C134.726 17.4135 134.316 16.4337 133.609 16.1441C132.851 15.836 131.901 16.2242 131.603 16.9637C131.572 17.0314 131.56 17.1239 131.579 17.1917C131.678 17.5983 131.79 18.005 131.92 18.5041ZM139.059 17.2286C138.867 17.0807 138.749 16.9267 138.656 16.939C138.538 16.9575 138.383 17.0992 138.352 17.2101C138.333 17.2841 138.507 17.4813 138.606 17.4874C138.724 17.4936 138.848 17.358 139.053 17.2286H139.059ZM136.793 17.2471C136.917 17.0438 137.054 16.9144 137.042 16.8035C137.035 16.7049 136.824 16.5385 136.756 16.557C136.638 16.594 136.502 16.748 136.483 16.8651C136.47 16.9513 136.638 17.0684 136.793 17.2471ZM126.612 23.2488C126.333 23.335 126.078 23.409 125.83 23.4891C125.83 23.5137 125.83 23.5384 125.83 23.563C126.078 23.6431 126.327 23.7171 126.606 23.8095V23.2549L126.612 23.2488Z" fill="#FE5245"/>
</g>
<defs>
<clipPath id="clip0_77_335">
<rect width="291" height="59" fill="white"/>
</clipPath>
</defs>
</svg>
